<?xml version="1.0" encoding="utf-8"?>
<svg version="1.1" width="600px" height="600px" viewBox="0 0 200 200" style="overflow:hidden!important;" xmlns="http://www.w3.org/2000/svg">
  <g id="svga-group-wrapper">
    <g id="svga-group-backs-single"/>
    <g id="svga-group-humanwrap-move" transform="matrix(1,0,0,1,0,0)">
      <g id="svga-group-humanwrap">
        <g id="svga-group-hair-back-move" transform="matrix(0.9986295346632303,-0.05233595798588131,0.05233595798588131,0.9986295346632303,-7.451667374275814,5.418608619052037)">
          <g id="svga-group-hair-back" transform="matrix(1.0400004000000003,0,0,1.0002004000000002,0,0)"/>
        </g>
        <g id="svga-group-humanbody-back">
          <path id="SvgjsPath14908" d="M77.6 118.3c0 19.3 3.4 44.1-10 51.9-13.4 7.9-31.9 11.3-37.8 22s-4.4 25.3-4.4 25.3h149.3s.7-18.9-5.1-26.4c-8.1-10.4-27.8-15.5-37.7-20.9s-13.4-25.1-13.4-52.4l-40.9.5z" fill="#ffffff" stroke-width="none" opacity="1"/>
        </g>
        <g id="svga-group-chinshadow-single"/>
        <g id="svga-group-humanbody-front">
          <path id="SvgjsPath14909" d="M175.8 218.7H24.4l-.1-1c-.1-.6-1.5-15.1 4.5-26 4.1-7.4 13.5-11.3 23.5-15.5 5-2.1 10.2-4.3 14.8-6.9 10.6-6.2 10.1-23.9 9.6-41-.1-3.5-.2-6.8-.2-10v-1.1l43.2-.4v1.1c0 29.9 4.2 46.7 12.8 51.4 2.9 1.6 6.7 3.2 10.8 4.9 10 4.1 21.3 8.8 27.2 16.3 6.1 7.7 5.4 26.4 5.4 27.1l-.1 1.1zm-149.3-2.2h147.1c0-4.1-.2-18.5-4.9-24.6-5.5-7-16.6-11.6-26.3-15.6-4.1-1.7-8-3.3-11-5-5.1-2.8-8.7-8.9-10.9-18.7-2-8.4-2.9-19.4-3-33.5l-38.6.4c0 2.8.1 5.7.2 8.8.5 17.8 1 36.1-10.7 43-4.7 2.7-9.9 4.9-15 7.1-9.6 4-18.7 7.8-22.4 14.5-5 8.6-4.7 20.1-4.5 23.6z" fill="#000000" stroke-width="none" opacity="1"/>
          <path id="SvgjsPath14910" d="M93.9 153.8c-.5 1.8-.4 3.4.5 5.2.8 1.6 2.1 2.7 3.9 2.9.4 0 .7-.5.5-.8-1.6-2.2-3.5-4.2-3.7-7.1 0-.7-1-.9-1.2-.2z" fill="#000000" stroke-width="none" opacity="1"/>
          <path id="SvgjsPath14911" d="M112.5 187.5c8.8.5 18.1-.7 26.6-2.9.7-.2.6-1.4-.2-1.3-8.8 1.1-17.7 2-26.5 3.3-.5.1-.3.9.1.9z" fill="#000000" stroke-width="none" opacity="1"/>
          <path id="SvgjsPath14912" d="M63.1 182.5c3.8.9 7.6 1.9 11.5 2.8 3.6.8 7.4 2 11.1 2.1.7 0 .8-.9.2-1.2-3.5-1.4-7.5-1.7-11.2-2.5-3.8-.7-7.5-1.3-11.3-2-.5 0-.7.7-.3.8z" fill="#000000" stroke-width="none" opacity="1"/>
        </g>
        <g id="svga-group-clothes-single">
          <path id="SvgjsPath14795" d="M51.4 218s1-21.2-3-40.2l14.1-6.3s3.3 21.9 15.1 30.3 43.4 7.6 50.9-1.3c7.4-8.9 11.1-27.9 11.1-27.9l15.4 6.3s-2.1 12-2.8 22.9-.2 16.2-.2 16.2H51.4z" fill="#ffffff" stroke-width="none" opacity="1"/>
          <path id="SvgjsPath14796" d="m155.4 177.9-15.4-6.3c-.3-.1-.6-.1-.9.1-.3.1-.4.4-.5.7 0 .2-3.7 18.8-10.9 27.4-7.2 8.6-38.2 9.3-49.5 1.1-11.3-8.1-14.6-29.4-14.7-29.7 0-.3-.2-.6-.5-.7-.3-.1-.6-.2-.9 0L48 176.8c-.4.2-.7.7-.6 1.1 3.9 18.6 3 39.8 3 40 0 .3.1.5.3.7.2.2.5.3.7.3h6.2c.1.1.2.1.3 0H152c.3 0 .6-.1.7-.3s.3-.5.3-.8c0-.1-.5-5.4.2-16.1.6-10.7 2.8-22.6 2.8-22.8.1-.3-.2-.8-.6-1zm-102.6-1c-1 1.3-2 2.7-2.7 4.1-.2-.9-.3-1.8-.5-2.7l3.2-1.4zm98.4 24.8c-.5 8.2-.4 13.2-.2 15.3H67c.9-1 1.9-2 2.8-3.1.1-.2-.1-.4-.2-.2-1.1 1.1-2.1 2.2-3.2 3.3h-6.5c1-1.1 2-2.3 3-3.5.1-.1-.1-.3-.2-.2-1.2 1.1-2.3 2.4-3.3 3.7h-5.5c2.2-2.6 4.5-5.2 6.5-7.9.1-.2-.2-.4-.3-.2-2.4 2.6-4.7 5.4-6.9 8.1h-.6c.1-2.1.2-7.3-.1-13.9 3-3.9 6.1-7.7 8.9-11.7.1-.1-.1-.3-.2-.2-3 3.6-5.9 7.5-8.7 11.3-.1-1.6-.2-3.3-.3-5.1 3.6-4.7 7.1-9.6 10-14.8.1-.1-.1-.2-.2-.1-3.2 4.8-6.4 9.6-9.8 14.3-.1-1.3-.2-2.7-.3-4 2.6-4.3 5.4-8.4 8.5-12.4.1-.2-.1-.4-.3-.2-3.2 3.6-5.9 7.7-8.2 11.9l-.6-5.1c.1 0 .2.1.2 0 .2-.2.4-.5.6-.7.1-.1 0-.3-.2-.2 1.3-.9 2.5-3.7 3.5-5.2 1.4-2 2.8-3.9 4.2-5.8.2-.2-.2-.4-.3-.2-2.9 3.8-5.7 7.6-8.2 11.7-.2-1.4-.4-2.9-.7-4.4 1.2-2 2.3-3.9 3.7-5.8l7.8-3.5c.9 4.9 4.8 22.2 15.2 29.7 12.2 8.8 44.4 7.9 52.2-1.5 6.5-7.8 10.1-22.8 11.1-27.1l13.6 5.6c-.6 2.8-2.3 12.9-2.8 22.1zM58 202.8c-1.9 2-3.6 4.2-5.4 6.4-.2.2.1.5.3.3 1.8-2.1 3.7-4.2 5.3-6.5.1-.2-.1-.3-.2-.2z" fill="#000000" stroke-width="none" opacity="1"/>
        </g>
        <g id="svga-group-head" transform="matrix(0.9986295346632303,-0.05233595798588131,0.05233595798588131,0.9986295346632303,-7.451667374275814,5.418608619052037)">
          <g id="svga-group-ears-left-move" transform="matrix(1,0,0,1,-3,0)">
            <g id="svga-group-ears-left">
              <path id="SvgjsPath16892" d="M58.9 77.8s-2.5-2.4-5.4-3.5c-2.9-1.1-6.1.7-7.1 3.7-1 2.9 1.3 15.1 5 19.5s6.2 4.8 8.7 2.5c2.6-2.4 7-10.8-1.2-22.2z" fill="#ffffff" stroke-width="none" opacity="1"/>
              <path id="SvgjsPath16893" d="M56.8 102.3c-1.9-.1-3.8-1.5-6.1-4.2-3.9-4.7-6.3-17.1-5.2-20.5.6-1.8 1.9-3.3 3.6-4.1 1.5-.7 3.2-.8 4.8-.2 3.1 1.2 5.6 3.6 5.7 3.7l.1.1c8.7 12.2 3.5 21.2 1.1 23.5-1.2 1.1-2.4 1.6-3.7 1.6-.1.1-.2.1-.3.1zm-3.6-27.1c-1.3-.5-2.5-.2-3.2.1-1.2.6-2.1 1.6-2.6 2.9-.8 2.5 1.3 14.3 4.9 18.5 1.9 2.3 3.4 3.4 4.7 3.5.8.1 1.6-.3 2.5-1.1 2.1-1.9 6.5-9.8-1.3-20.7-.4-.3-2.6-2.2-5-3.2z" fill="#000000" stroke-width="none" opacity="1"/>
              <path id="SvgjsPath16894" d="M50.2 77.4c3.3.6 5.4 6.1 6 9.8.1.1.1.2.2.3.4.6-.4 1.2-.8.6-.5-.8-1-1.6-1.8-1.9-1.4-.5-2.1 1.1-1.8 2.6.4 1.9 1.6 3 2.6 4.4.1.1 0 .3-.1.2-1.7-1-4.3-4.8-3.1-7.2.9-1.7 2.3-1.4 3.4-.4-.8-2.1-1.4-4.3-3-5.9-.5-.5-1.5-1.4-2.2-1.3-1.3.2-1.3 2.1-1.3 3.4-.1 1.7.1 3.4.4 5 0 .2-.2.2-.3.1-.6-2.4-2-10.4 1.8-9.7z" fill="#000000" stroke-width="none" opacity="1"/>
            </g>
          </g>
          <g id="svga-group-ears-right-move" transform="matrix(1,0,0,1,3,0)">
            <g id="svga-group-ears-right">
              <path id="SvgjsPath16895" d="M141.1 77.8s2.5-2.4 5.4-3.5c2.9-1.1 6.1.7 7.1 3.7 1 2.9-1.3 15.1-5 19.5s-6.2 4.8-8.7 2.5c-2.6-2.4-7-10.8 1.2-22.2z" fill="#ffffff" stroke-width="none" opacity="1"/>
              <path id="SvgjsPath16896" d="M142.9 102.3c-1.3 0-2.5-.5-3.7-1.6-2.5-2.2-7.6-11.3 1.1-23.5l.1-.1c.1-.1 2.7-2.5 5.7-3.7 1.5-.6 3.2-.5 4.8.2 1.7.8 3 2.3 3.6 4.1 1.1 3.3-1.3 15.8-5.2 20.5-2.3 2.7-4.2 4.1-6.1 4.2-.1-.1-.2-.1-.3-.1zm-1.1-23.9c-7.8 10.9-3.4 18.8-1.3 20.7.9.8 1.7 1.2 2.5 1.1 1.3-.1 2.8-1.2 4.7-3.5 3.5-4.2 5.7-16.1 4.9-18.5-.4-1.3-1.4-2.4-2.6-2.9-.7-.3-1.9-.6-3.2-.1-2.4 1-4.6 2.9-5 3.2z" fill="#000000" stroke-width="none" opacity="1"/>
              <path id="SvgjsPath16897" d="M149.8 77.4c-3.3.6-5.4 6.1-6 9.8-.1.1-.1.2-.2.3-.4.6.4 1.2.8.6.5-.8 1-1.6 1.8-1.9 1.4-.5 2.1 1.1 1.8 2.6-.4 1.9-1.6 3-2.6 4.4-.1.1 0 .3.1.2 1.7-1 4.3-4.8 3.1-7.2-.9-1.7-2.3-1.4-3.4-.4.8-2.1 1.4-4.3 3-5.9.5-.5 1.5-1.4 2.2-1.3 1.3.2 1.3 2.1 1.3 3.4.1 1.7-.1 3.4-.4 5 0 .2.2.2.3.1.6-2.4 2-10.4-1.8-9.7z" fill="#000000" stroke-width="none" opacity="1"/>
            </g>
          </g>
          <g id="svga-group-faceshape-wrap" transform="matrix(1.0400004000000003,0,0,1.0002004000000002,-4.01584978944399,-0.01634261831819117)">
            <g id="svga-group-faceshape-single">
              <path id="SvgjsPath14891" d="M150.5 102.8c-2.3-12.1-6.2-18.4-6.7-34.9-.1-3.3-.3-8.9-1.4-14.2-2.3-11.4-15.1-28.8-42.4-28.8S63.6 38.2 59.6 48.1c-2.5 6.2-3.2 15.2-3.4 19.7 0 0-1.2 16.8-2.4 21.3-1.1 4.5-7.6 17.8-1.9 29.5 5.7 11.7 18.5 18.5 31.7 15.1 0 0 14.4 9.8 29.5.8 0 0 10.6 5.3 23.4-1.1 12.9-6.5 16.3-18.6 14-30.6z" fill="#ffffff" stroke-width="none" opacity="1"/>
              <path id="SvgjsPath14892" d="M99.4 139.4c-2.6 0-5-.4-7-.8-4.6-1.1-7.9-3-9-3.7-13.2 3.1-26.5-3.3-32.5-15.8-4.9-10.1-1.1-21.3.9-27.3.4-1.2.7-2.2.9-2.9 1.1-4.3 2.3-20.4 2.3-21.1.3-4.8 1-13.8 3.5-20.1 6.6-16.2 20.1-24 41.5-24 12.3 0 23.2 3.6 31.3 10.4 6.3 5.2 10.9 12.5 12.2 19.3 1.1 5.5 1.3 11.4 1.4 14.4.3 10.7 2.1 16.9 3.9 23.5 1 3.4 2 7 2.8 11.2 2.7 14.2-2.6 25.8-14.6 31.8-11.6 5.8-21.4 2.4-23.9 1.4-4.8 2.8-9.5 3.7-13.7 3.7zm-15.5-6.9.4.3c.1.1 14 9.3 28.2.7l.5-.3.6.3c.1 0 10.3 4.9 22.4-1.1 15-7.5 14.8-21.6 13.4-29.4-.8-4.1-1.8-7.6-2.7-11-1.8-6.5-3.7-13.1-4-24.1 0-3-.3-8.7-1.4-14-1.3-6.4-5.6-13.1-11.5-18-7.7-6.5-18-9.9-29.9-9.9-20.3 0-33.2 7.4-39.4 22.6-2.4 6-3.1 14.7-3.3 19.3-.1.7-1.2 16.9-2.4 21.5-.2.8-.6 1.9-1 3.1-1.9 5.7-5.5 16.3-1 25.6 5.7 11.7 18.2 17.7 30.4 14.5l.7-.1z" fill="#000000" stroke-width="none" opacity="1"/>
            </g>
          </g>
          <g id="svga-group-mouth-single-move" transform="matrix(1,0,0,1,0,0)">
            <g id="svga-group-mouth-single" transform="matrix(1.2000008000000006,0,0,1.2000008000000006,-20.040168813919138,-24.267786584918298)">
              <path id="SvgjsPath15072" d="M117.11 115.24c-.34-.18-.6-.42-.78-.76-.35-.63-1.32-.07-.97.57.05.09.12.16.18.24-.01 0-.02 0-.03.01a38.04 38.04 0 0 1-7.15 2.53.56.56 0 0 0-.26-.01c-2.35.46-4.66.17-7.03.14-.74-.01-1.58.02-1.84.66-.71-.88-1.89-.76-3.04-.77-2.01-.01-4.03.01-6.04-.01h-.03c-1.84-.45-3.64-1.04-5.41-1.76l-.03-.03c.03-.17 0-.35-.14-.49-.2-.2-.6-.23-.79 0-.3.35-.59.7-.89 1.05-.2.23-.23.57 0 .79.2.2.6.23.79 0 .12-.14.24-.28.35-.42.02.01.03.03.05.04h.01c2.85 2.85 5.63 5.83 8.62 8.54 2.43 2.21 5.3 2.28 8.46 2.17 3.4-.13 5.96-1.38 8.39-3.76 2.48-2.43 4.79-5.09 6.93-7.83.03.01.04.04.07.05.27.14.61.07.77-.2.16-.23.08-.61-.19-.75zm-30.48 2.75c9.03 3.05 18.91 2.7 27.73-.97-1.34 1.61-2.75 3.16-4.18 4.68-6.42 2.51-13.26 2.45-19.73.02-.02-.01-.03.01-.05 0-1.26-1.24-2.51-2.48-3.77-3.73zm22.46 4.84-.06-.12c.09-.03.19-.06.28-.1l-.22.22zm-.5.49c-.07-.13-.15-.27-.22-.4.04-.01.08-.02.12-.04v.02c.06.11.11.23.17.34-.02.03-.04.06-.07.08zm-.89.77c-.19-.27-.38-.55-.57-.82.07-.02.15-.03.22-.05l.39.84c-.02.01-.03.02-.04.03zm-.65.48-1.03-1.03.52-.12c.24.34.47.68.71 1.02-.07.04-.13.08-.2.13zm-.83.54c-.31-.48-.62-.96-.92-1.44l.18-.03c-.01.07.01.15.08.22l1.04 1.04c-.13.07-.26.14-.38.21zm-.72.4c-.3-.57-.61-1.14-.91-1.72.04-.01.08-.01.12-.02v.01l1.02 1.59c-.08.06-.15.11-.23.14zm-.54.24c-.44-.58-.81-1.2-1.13-1.84.06-.01.11-.02.17-.02l.99 1.86c-.02-.01-.03-.01-.03 0zm-.91.34c-.48-.65-.89-1.34-1.25-2.07.14-.01.28-.02.42-.04.34.7.74 1.36 1.21 1.99-.12.04-.25.08-.38.12zm-.68.19c-.57-.73-1.14-1.46-1.7-2.18.18-.01.36-.01.53-.03.35.77.8 1.49 1.29 2.18-.04 0-.08.02-.12.03zm-.83.16c-.44-.58-.82-1.18-1.16-1.82l1.39 1.78c-.08.02-.15.03-.23.04zm-.85.13c-.6-.78-1.14-1.59-1.62-2.45h.44c0 .02-.01.04 0 .07.39.83.88 1.6 1.42 2.35l-.24.03zm-.97.05c-.54-.8-1.01-1.63-1.41-2.51.05 0 .09.01.14.01.01.03-.01.05.01.08.47.84 1 1.64 1.57 2.41-.1 0-.2.01-.31.01zm-.77.02c-.53-.86-1.06-1.72-1.59-2.59.11.01.22.01.33.02v.03c.39.89.86 1.73 1.39 2.54h-.13zm-2.19-.05c-.62-.89-1.18-1.82-1.67-2.8.03.01.07.01.1.02 0 .04.01.09.05.13.66.92 1.4 1.78 2.09 2.68l-.57-.03zm-.97-.12c-.53-.92-1.03-1.86-1.5-2.82.04.01.08.02.11.02v.02c.47.98 1.03 1.9 1.63 2.8-.08 0-.16 0-.24-.02zm-1.71-.55c-.59-.9-1.18-1.81-1.78-2.71.1.03.2.05.3.08.53.9 1.06 1.79 1.59 2.69a1.09 1.09 0 0 0-.11-.06zm-1.74-1.26c-.38-.53-.7-1.1-.97-1.7.05.01.1.03.14.04.01.02 0 .03.01.05l1.38 2.1c-.19-.16-.38-.32-.56-.49zm2.68 1.61c-.55-.93-1.1-1.87-1.65-2.8.07.02.15.03.22.05.45.94.94 1.85 1.45 2.76-.01 0-.02-.01-.02-.01zm2.97.37c.01-.01.01-.02.02-.03-.17-.18-.31-.42-.46-.61-.54-.7-1.1-1.38-1.63-2.08.25.03.51.05.76.08.01.01 0 .02 0 .03.54.87 1.08 1.75 1.61 2.62-.1-.01-.2-.01-.3-.01zm2.11-2.52c.01 0 .01 0 0 0 .01 0 .01 0 0 0 .01 0 0 0 0 0zm-9.81-1.51c.15.05.31.1.46.15-.01.05-.03.09-.01.15.04.1.09.19.13.29l-.09-.09c-.16-.17-.33-.33-.49-.5z" fill="#000000" stroke-width="none" opacity="1"/>
            </g>
          </g>
          <g id="svga-group-eyes-left-move" transform="matrix(1,0,0,1,3,0)">
            <g id="svga-group-eyes-left">
              <g id="svga-group-eyesback-left"/>
              <g id="svga-group-eyesiriswrapper-left">
                <g id="svga-group-eyesiriscontrol-left" transform="matrix(1,0,0,1,0,0)">
                  <g id="svga-group-eyesiris-left">
                    <path id="SvgjsPath14927" d="M79.2 82.9c2.4 0 4.3 1.9 4.3 4.2s-1.9 4.2-4.3 4.2-4.3-1.9-4.3-4.2 1.9-4.2 4.3-4.2z" fill="#000000" stroke-width="none" opacity="1"/>
                    <path id="SvgjsPath14928" d="M75.5 84.9c-.4 1-.5 2.2-.2 3.1.3 1 .9 1.9 1.8 2.3s1.9.6 2.8.3c.9-.2 1.8-.8 2.2-1.6.5-.8.7-1.8.5-2.8-.1-.5-.3-.9-.6-1.3s-.7-.7-1.1-1-.9-.4-1.4-.6c-.5-.1-1-.1-1.5-.1-.1 0-.3 0-.4.1s-.3.1-.4.1c-.2.1-.5.2-.7.3-.3.4-.7.8-1 1.2.2-.5.6-.9 1-1.3.2-.2.5-.3.7-.5.1-.1.3-.1.4-.2.1-.1.3-.1.4-.1.6-.1 1.2-.2 1.8-.1.6.1 1.1.2 1.7.5s1.1.6 1.4 1.1c.4.5.7 1.1.8 1.7.3 1.2.1 2.5-.6 3.6-.3.5-.8 1-1.3 1.4-.5.3-1.1.6-1.7.7-1.2.2-2.5.1-3.5-.6-.5-.3-.9-.8-1.3-1.3-.3-.5-.5-1.1-.6-1.7-.1-1.1.1-2.3.8-3.2z" fill="#ffffff" stroke-width="none" opacity="1"/>
                    <path id="SvgjsPath14929" d="M79.2 92c-.9 0-1.8-.3-2.6-.8-.5-.3-1-.8-1.3-1.3-.3-.5-.5-1.1-.6-1.7-.2-1.2.1-2.4.7-3.4l.6-.9.2-.2v.1c.1-.1.2-.2.3-.2.2-.2.5-.4.8-.5.1-.1.3-.1.4-.2.1-.1.3-.1.4-.1.6-.2 1.2-.2 1.8-.1.6.1 1.2.3 1.7.5.6.3 1.1.7 1.5 1.2.4.5.7 1.1.8 1.7.3 1.2.1 2.6-.6 3.7-.3.6-.8 1.1-1.3 1.4s-1.1.6-1.8.8c-.3-.1-.7 0-1 0zM75 86.5c-.1.5-.1 1.1 0 1.6.1.6.3 1.1.6 1.6s.7.9 1.2 1.2c1 .6 2.2.8 3.4.6.6-.1 1.2-.4 1.6-.7s.9-.8 1.2-1.3c.6-1 .8-2.3.5-3.5-.1-.6-.4-1.2-.8-1.6-.4-.4-.8-.8-1.4-1.1-.5-.2-1-.4-1.6-.5-.5-.1-1.1 0-1.7.1-.1 0-.3.1-.4.1-.1.1-.3.1-.4.2-.2.1-.3.2-.5.3.2-.1.4-.2.6-.2.1 0 .3-.1.4-.1.1 0 .3-.1.4-.1.6-.1 1.1-.1 1.6.1.6.2 1.1.4 1.5.6.4.3.8.6 1.1 1 .3.4.5.9.6 1.4.2 1 0 2-.5 2.9-.5.9-1.4 1.5-2.4 1.7-1 .2-2.1.1-3-.4S75.4 89 75.1 88c-.1-.4-.1-.9-.1-1.5zm.6-1.5c-.4 1-.4 2-.1 3 .3 1 .9 1.8 1.7 2.2.8.4 1.8.6 2.7.3.9-.2 1.7-.8 2.2-1.6.5-.8.7-1.8.5-2.7-.1-.5-.3-.9-.5-1.2-.3-.4-.6-.7-1-.9-.4-.2-.8-.4-1.4-.6-.4-.1-.9-.1-1.5-.1-.1 0-.2 0-.4.1-.1 0-.2.1-.4.1-.2.1-.4.2-.7.3-.4.3-.7.7-1.1 1.1z" fill="#000000" stroke-width="none" opacity="1"/>
                    <path id="SvgjsPath14930" d="M79.3 84.8c-1.3-.3-2.9 1.3-2.6 2.6.1.3.4.6.7.6.4 0 .6-.1.8-.4.1-.1.1-.2.2-.3 0 0 .1-.1.1-.2V87l.1-.1.1-.1s.2-.1.1-.1c.2-.1.4-.1.6-.2.8-.3.7-1.5-.1-1.7z" fill="#ffffff" stroke-width="none" opacity="1"/>
                  </g>
                </g>
              </g>
              <g id="svga-group-eyesfront-left">
                <path id="SvgjsPath16526" d="M79 72.1c-8.2 0-14.8 6.6-14.8 14.8s6.6 14.8 14.8 14.8 14.8-6.6 14.8-14.8c0-8.1-6.6-14.8-14.8-14.8zm3.1 20.1c-5.3.7-12.6-1-14.2-1.7s-2.8-2.6 1.3-4.1 7.8-1.6 13.7-.4 7.9 3.7 7.9 3.7c-.3.4-3.4 1.9-8.7 2.5z" fill="#ffffff" stroke-width="none" opacity="1"/>
                <path id="SvgjsPath16527" d="M66.3 90.1c-.4-.5-.4-1.2 0-1.9 1.3-2.2 7.1-4.6 14.1-3.3 6 1.1 9.1 3 10.5 4.2.1-.1.1-.3.1-.4.1-.9-.8-2.1-2.3-3.1-3.5-2.4-9.7-3.8-14.9-1.2-.2.1-.5 0-.6-.2s0-.5.2-.6c5.5-2.8 12.1-1.3 15.8 1.3 1.9 1.3 2.9 2.7 2.7 4 0 .3-.1.6-.3.9l.2.2c.2.2.1.5-.1.6-.2.2-.5.1-.6-.1l-.1-.1c-.2.2-.5.3-.8.5-3.3 1.4-7.3 1.9-11.1 1.9-6.2 0-11.8-1.4-12.8-2.7zm14-4.3c-6.9-1.2-12.2 1.2-13.2 2.9-.3.5-.1.7-.1.8 1.3 1.7 14.2 4.1 22.7.5.2-.1.4-.2.5-.3-1.2-1-4.1-2.9-9.9-3.9z" fill="#000000" stroke-width="none" opacity="1"/>
              </g>
            </g>
          </g>
          <g id="svga-group-eyes-right-move" transform="matrix(1,0,0,1,-3,0)">
            <g id="svga-group-eyes-right">
              <g id="svga-group-eyesback-right"/>
              <g id="svga-group-eyesiriswrapper-right">
                <g id="svga-group-eyesiriscontrol-right" transform="matrix(1,0,0,1,0,0)">
                  <g id="svga-group-eyesiris-right">
                    <path id="SvgjsPath14931" d="M121.3 82.9c2.4 0 4.3 1.9 4.3 4.2s-1.9 4.2-4.3 4.2-4.3-1.9-4.3-4.2 2-4.2 4.3-4.2z" fill="#000000" stroke-width="none" opacity="1"/>
                    <path id="SvgjsPath14932" d="M117.6 84.9c-.4 1-.5 2.2-.2 3.1.3 1 .9 1.9 1.8 2.3s1.9.6 2.8.3c.9-.2 1.8-.8 2.2-1.6.5-.8.7-1.8.5-2.8-.1-.5-.3-.9-.6-1.3s-.7-.7-1.1-1-.9-.4-1.4-.6c-.5-.1-1-.1-1.5-.1-.1 0-.3 0-.4.1s-.3.1-.4.1c-.2.1-.5.2-.7.3-.3.4-.7.8-1 1.2.2-.5.6-.9 1-1.3.2-.2.5-.3.7-.5.1-.1.3-.1.4-.2.1-.1.3-.1.4-.1.6-.1 1.2-.2 1.8-.1.6.1 1.1.2 1.7.5s1.1.6 1.4 1.1c.4.5.7 1.1.8 1.7.3 1.2.1 2.5-.6 3.6-.3.5-.8 1-1.3 1.4-.5.3-1.1.6-1.7.7-1.2.2-2.5.1-3.5-.6-.5-.3-.9-.8-1.3-1.3-.3-.5-.5-1.1-.6-1.7 0-1.1.2-2.3.8-3.2z" fill="#ffffff" stroke-width="none" opacity="1"/>
                    <path id="SvgjsPath14933" d="M121.3 92c-.9 0-1.8-.3-2.6-.8-.5-.3-1-.8-1.3-1.3-.3-.5-.5-1.1-.6-1.7-.2-1.2.1-2.4.7-3.4l.6-.9.2-.2v.1c.1-.1.2-.2.3-.2.2-.2.5-.4.8-.5.1-.1.3-.1.4-.2.1-.1.3-.1.4-.1.6-.2 1.2-.2 1.8-.1.6.1 1.2.3 1.7.5.6.3 1.1.7 1.5 1.2.4.5.7 1.1.8 1.7.3 1.2.1 2.6-.6 3.7-.3.6-.8 1.1-1.3 1.4s-1.1.6-1.8.8c-.3-.1-.6 0-1 0zm-4.2-5.5c-.1.5-.1 1.1 0 1.6.1.6.3 1.1.6 1.6s.7.9 1.2 1.2c1 .6 2.2.8 3.4.6.6-.1 1.2-.4 1.6-.7s.9-.8 1.2-1.3c.6-1 .8-2.3.5-3.5-.1-.6-.4-1.2-.8-1.6-.4-.4-.8-.8-1.4-1.1-.5-.2-1-.4-1.6-.5-.5-.1-1.1 0-1.7.1-.1 0-.3.1-.4.1-.1.1-.3.1-.4.2-.2.1-.3.2-.5.3.2-.1.4-.2.6-.2.1 0 .3-.1.4-.1.1 0 .3-.1.4-.1.6-.1 1.1-.1 1.6.1.6.2 1.1.4 1.5.6.4.3.8.6 1.1 1 .3.4.5.9.6 1.4.2 1 0 2-.5 2.9-.5.8-1.3 1.5-2.3 1.7-1 .2-2.1.1-3-.4s-1.6-1.4-1.9-2.4c-.1-.4-.2-.9-.2-1.5zm.6-1.5c-.4 1-.4 2-.1 3 .3 1 .9 1.8 1.7 2.2.8.4 1.8.6 2.7.3.9-.2 1.7-.8 2.2-1.6.5-.8.7-1.8.5-2.7-.1-.5-.3-.9-.5-1.2-.3-.4-.6-.7-1-.9-.4-.2-.8-.4-1.4-.6-.4-.1-.9-.1-1.5-.1-.1 0-.2 0-.4.1-.1 0-.2.1-.4.1-.2.1-.4.2-.7.3l-1.1 1.1z" fill="#000000" stroke-width="none" opacity="1"/>
                    <path id="SvgjsPath14934" d="M121.4 84.8c-1.3-.3-2.9 1.3-2.6 2.6.1.3.4.6.7.6.4 0 .6-.1.8-.4.1-.1.1-.2.2-.3 0 0 .1-.1.1-.2V87l.1-.1.1-.1s.2-.1.1-.1c.2-.1.4-.1.6-.2.8-.3.7-1.5-.1-1.7z" fill="#ffffff" stroke-width="none" opacity="1"/>
                  </g>
                </g>
              </g>
              <g id="svga-group-eyesfront-right">
                <path id="SvgjsPath16528" d="M121 72.1c-8.2 0-14.8 6.6-14.8 14.8s6.6 14.8 14.8 14.8 14.8-6.6 14.8-14.8c0-8.1-6.6-14.8-14.8-14.8zm11 18.5c-1.6.6-8.9 2.4-14.2 1.7-5.3-.7-8.4-2.2-8.7-2.5 0 0 2-2.4 7.9-3.7 5.9-1.3 9.6-1.2 13.7.4s3 3.4 1.3 4.1z" fill="#ffffff" stroke-width="none" opacity="1"/>
                <path id="SvgjsPath16531" d="M133.6 88.2c-1.3-2.2-7.1-4.6-14.1-3.3-1.5.3-2.8.6-4 1-.1-.7-.3-1.4-.2-2.1.6-.2 1.2-.3 1.8-.4-.2.6-.2 1.2.1 1.8.1.2.4.1.4-.1-.1-.6-.2-1.1 0-1.7 2.8-.4 5.8-.2 8.6 1.2.2.1.5 0 .6-.2s0-.5-.2-.6c-5.5-2.8-12.1-1.3-15.8 1.3-1.9 1.3-2.9 2.7-2.7 4 0 .3.1.6.3.9l-.2.2c-.2.2-.1.5.1.6.2.2.5.1.6-.1l.1-.1c.2.2.5.3.8.5 3.3 1.4 7.3 1.9 11.1 1.9 6.2 0 11.8-1.4 12.8-2.7.4-.8.4-1.4-.1-2.1zm-18.7-4.4c-.1.7-.1 1.5.2 2.1-.5.2-1 .3-1.4.5 0-.7-.1-1.4-.1-2.1.5-.2.9-.3 1.3-.5zm-3.2 1.6c.5-.3 1-.6 1.5-.8-.1.7-.1 1.4.2 2-.7.3-1.3.5-1.8.8 0-.3-.1-.7-.1-1 0-.4.1-.7.2-1zm-1.5 1.1c.2-.2.5-.5.8-.7-.1.6-.1 1.3.4 1.7-.3.2-.6.4-.9.5-.1-.2-.2-.4-.2-.7-.1-.2-.1-.5-.1-.8zm-.9 1.4c0-.2 0-.3.1-.5l.3-.3c0 .5.1.9.3 1.3-.2.2-.5.3-.6.5 0-.4-.1-.7-.1-1zm23.6 1.6c-1.3 1.7-14.2 4.1-22.7.5-.2-.1-.4-.2-.5-.3 1.3-1 4.2-2.9 10-3.9 6.9-1.2 12.2 1.2 13.2 2.9.3.5.1.7 0 .8zm-13.1-6.3v.8c0 .1.2.1.2 0v-.8c0-.1-.2-.1-.2 0z" fill="#000000" stroke-width="none" opacity="1"/>
              </g>
            </g>
          </g>
          <g id="svga-group-facehighlight-single"/>
          <g id="svga-group-eyebrows-left-move" transform="matrix(1,0,0,1,0,0)">
            <g id="svga-group-eyebrows-left-rotate" transform="matrix(1,1.745329211202154e-9,-1.745329211202154e-9,1,1.298418652595501e-7,-1.3435459322863608e-7)">
              <g id="svga-group-eyebrows-left">
                <path id="SvgjsPath16624" d="M63.38 74.47c.22-.18 5.53-4.4 8.18-4.68 2.64-.28 18.4 3.81 19.44 5.45.47.75.57 1.33.28 1.75-.23.33-.68.5-1.35.5-.44 0-.98-.07-1.61-.21-1.05-.23-3.78-1.19-6.94-2.29-4.07-1.43-8.69-3.04-9.81-3.12-1.58-.1-6.16 2.28-7.79 3.21-.16.09-.37.04-.48-.11a.408.408 0 0 1 .08-.5z" fill="#000000" stroke-width="none" opacity="1"/>
              </g>
            </g>
          </g>
          <g id="svga-group-eyebrows-right-move" transform="matrix(1,0,0,1,0,0)">
            <g id="svga-group-eyebrows-right-rotate" transform="matrix(1,1.745329211202154e-9,-1.745329211202154e-9,1,1.298418652595501e-7,-2.1471123545779847e-7)">
              <g id="svga-group-eyebrows-right">
                <path id="SvgjsPath16625" d="M136.62 74.47c-.22-.18-5.53-4.4-8.18-4.68-2.64-.28-18.4 3.81-19.44 5.45-.47.75-.57 1.33-.28 1.75.23.33.68.5 1.35.5.44 0 .98-.07 1.61-.21 1.05-.23 3.78-1.19 6.94-2.29 4.07-1.43 8.69-3.04 9.81-3.12 1.58-.1 6.16 2.28 7.79 3.21.16.09.37.04.48-.11.09-.17.06-.38-.08-.5z" fill="#000000" stroke-width="none" opacity="1"/>
              </g>
            </g>
          </g>
          <g id="svga-group-beardwrap" transform="matrix(1.0400004000000003,0,0,1.0002004000000002,0,0)">
            <g id="svga-group-beard-single-move" transform="matrix(1,0,0,1,0,0)">
              <g id="svga-group-beard-single"/>
            </g>
          </g>
          <g id="svga-group-mustache-single-move" transform="matrix(1,0,0,1,0,0)">
            <g id="svga-group-mustache-single" transform="matrix(0.7999992000000002,0,0,0.7999992000000002,19.884156226980565,23.188838635110443)">
              <path id="SvgjsPath15675" d="M98.1 114.1c-.2.3-.4.5-.7.8-.1.1 0 .4.2.3.3-.2.6-.5.8-.9-.1-.2-.2-.3-.3-.2zm-1.7.6c-.3.2-.6.5-.9.7-.2.1.1.4.2.3.3-.2.7-.4.9-.8.1-.1-.1-.3-.2-.2zm-1.2.1c-.3.2-.6.5-.9.7-.2.1-.1.3.1.3.4-.2.8-.3 1-.7.1-.3-.1-.4-.2-.3zm-1.6-.2c-.4.1-.7.4-1 .5-.2.1-.1.3.1.2.4-.1.8-.2 1.1-.6 0 0-.1-.2-.2-.1zm-1.6-.3c-.3.1-.6.3-.9.6-.1.1 0 .3.1.2.3-.2.7-.3.9-.5.1-.1 0-.3-.1-.3zm-1.8 0c-.2.1-.5.3-.7.4-.1.1 0 .3.1.2.3-.1.6-.2.8-.4.1-.1-.1-.2-.2-.2zm-1-.2c-.3.1-.7.4-.9.6-.1.1 0 .3.2.2.3-.2.7-.3.9-.6 0 0-.1-.3-.2-.2zm-1.6 0-.6.3c-.1.1-.1.3 0 .3.3 0 .6-.1.8-.4 0-.1-.1-.2-.2-.2zm-1.2-.2c-.3.1-.7.2-1 .4-.2.1-.2.3.1.3.4 0 .8-.1 1.1-.5.1 0 0-.2-.2-.2zm-1.6-.3c-.2.1-.5.2-.8.3-.2 0-.2.4.1.3.4 0 .7-.2.9-.5.1 0-.1-.2-.2-.1zm-1.4.1c-.3.1-.6.3-1 .3-.2 0-.1.3 0 .3.4 0 .8-.1 1.1-.5.1-.1 0-.2-.1-.1zm-1-.3c-.3.1-.7.3-1 .3-.2 0-.2.4.1.4.4 0 .8-.1 1.1-.4 0-.1-.1-.3-.2-.3zm-1.8.3c-.2 0-.5.1-.7.2-.2 0-.1.3 0 .3.3 0 .6-.1.8-.2.1-.1 0-.3-.1-.3zm-.4-.3c-.5.1-1 .2-1.5.4-.2.1-.1.3.1.3.5-.1 1-.2 1.5-.4 0-.1 0-.3-.1-.3zm5.3.4c.3 0 .5-.1.8-.2.2-.1.1-.3-.1-.3-.2.1-.5.2-.7.2-.3 0-.2.4 0 .3zm2.5-.6c-.2.1-.4.2-.7.4-.2.1 0 .4.2.3.2-.1.4-.2.6-.4.1-.2 0-.4-.1-.3zm.3.8c.2-.1.4-.2.7-.3.1 0 0-.2 0-.2-.3 0-.5.1-.7.2-.2.2-.1.4 0 .3zm2.1-.5c-.2.1-.3.1-.5.2s0 .4.2.3c.2-.1.3-.2.5-.3 0-.1-.1-.3-.2-.2zm1.3.4c0-.1 0-.2-.1-.2-.3.1-.5.2-.8.4-.2.1-.1.4.1.3.4-.1.7-.2.8-.5zm1.2.6c.3-.1.6-.3.8-.5.1-.1 0-.2-.1-.2-.3.1-.6.2-.9.4-.2.1 0 .4.2.3zm2-.2c.1-.1 0-.3-.2-.3-.3.1-.5.2-.7.3-.2.1 0 .4.2.3.3 0 .5-.1.7-.3zm1.6-.5-.9.6c-.2.1.1.4.2.3.3-.2.6-.4.8-.7.1-.1 0-.3-.1-.2zm.7.6c.2-.1.4-.3.6-.5.2-.2-.1-.4-.3-.3-.2.2-.4.3-.5.6 0 .1.1.2.2.2zm-.2.9c-.1.1-.1.2-.1.3s.2.3.3.2c.1-.1.1-.2.2-.3 0-.2-.3-.4-.4-.2zm2.9-.7c-.1.4 0 .7.2.9.1.1.2 0 .2-.1 0-.3-.1-.5-.1-.8 0-.2-.3-.2-.3 0zm1-.3c.1.3.2.7.4 1 .1.1.3.1.3-.1 0-.3-.2-.7-.3-1 0-.3-.5-.2-.4.1zm.1.8c-.1-.1-.3 0-.2.1.1.3.3.5.6.6.1 0 .2-.2.1-.2-.3-.2-.5-.3-.5-.5zm1.3-.9c-.1-.2-.4 0-.3.2.2.4.6.8 1.1.8.2 0 .2-.2.1-.3-.4-.2-.7-.3-.9-.7zm1.5-.9c-.2-.2-.5.1-.3.3.3.3.7.6 1.1.7.2 0 .2-.2.1-.3-.3-.3-.6-.4-.9-.7zm-.5 1.1c-.2-.1-.4.2-.2.3.4.3.8.6 1.3.5.1 0 .1-.2 0-.3-.3-.2-.8-.3-1.1-.5zm3.2.1c-.4-.1-.8-.2-1.2-.4-.2-.1-.4.2-.2.3.4.3.8.5 1.3.4.3 0 .3-.3.1-.3zm.5-.9c-.2-.1-.3.2-.2.3.4.3.8.5 1.3.5.1 0 .2-.2.1-.3-.4-.1-.9-.3-1.2-.5zm1.8-.4c-.2-.2-.4.1-.3.3.3.4.7.7 1.2.6.1 0 .2-.2 0-.3-.3-.2-.6-.3-.9-.6zm2.2.2c-.2-.3-.5-.4-.9-.4-.2-.1-.3.3-.1.4l.9.3c.1-.1.2-.2.1-.3zm.7-1c-.2-.1-.4.1-.2.2.2.2.5.4.8.4.2 0 .2-.2.1-.3-.3 0-.5-.1-.7-.3zm1.9.3c.1 0 .1-.2 0-.3-.2-.1-.5-.2-.7-.3-.2-.2-.4.1-.2.2.2.3.5.4.9.4zm1.8-.8c-.4 0-.7-.1-1-.3-.2-.1-.4.2-.2.3.4.3.8.4 1.2.3.2-.1.1-.3 0-.3zm-8.2 2.5c-.1-.2-.4 0-.3.2.2.3.5.6.9.6.2 0 .2-.2.1-.3-.3-.2-.6-.3-.7-.5zm1.5-.3c-.1-.1-.3.1-.2.2.2.2.5.4.8.5.1 0 .2-.1.1-.2-.3-.1-.5-.3-.7-.5zm2.6-.1c-.3-.1-.6-.1-.9-.2-.3 0-.2.4 0 .4.3 0 .6.1.9.1.1 0 .1-.2 0-.3zm1-.5c-.3 0-.5 0-.8-.2-.2-.1-.4.2-.2.3.3.2.7.2 1 .1.2 0 .1-.2 0-.2zm1.8-1.1c-.2 0-.2.3 0 .3s.4 0 .7-.1c.1 0 .1-.2 0-.2h-.7zm2.1-1.1c-.2-.2-.4.1-.3.3.3.3.6.5 1.1.3.1 0 .1-.2 0-.2-.3-.1-.6-.1-.8-.4zm1.9-.5c-.3-.1-.4.3-.1.4.3.1.5.1.8.2.2 0 .3-.3.1-.3-.3-.2-.5-.2-.8-.3zm1.6-.4c-.3-.1-.4.3-.1.4.2 0 .4.1.6 0 .1 0 .1-.2 0-.2-.2-.1-.3-.1-.5-.2zm-2.8.8c-.2-.1-.3.3-.1.3h.3c.1 0 .2-.1.1-.2-.1 0-.1 0-.3-.1zm4.6-.9c-.2 0-.4 0-.7.1-.2 0-.1.3.1.2.2 0 .4-.1.6-.1.1-.1.1-.2 0-.2zm-42.2 2.5c-.4.1-.8.2-1.2.1-.2-.1-.3.3-.1.4.5.2 1 .1 1.4-.2.2-.1 0-.3-.1-.3zm25.7 2c-.2 0-.2.4 0 .4h.6c.2 0 .2-.2.1-.3-.2-.1-.4-.1-.7-.1zm-9.2-.8c.2-.1.3-.2.5-.3.1-.1.1-.3-.1-.2-.2.1-.3.2-.5.2-.3.1-.1.4.1.3zm18-1c-.3-.1-.5-.1-.8-.2-.2-.1-.3.2-.1.3.3.2.6.3.9.2.2.1.2-.2 0-.3zm4.6-1.4c-.2 0-.4 0-.6-.2-.2-.1-.3.2-.2.3.2.2.5.2.7.1.3 0 .2-.2.1-.2zm-3 .8c-.2 0-.3.3-.1.3.3.1.5.2.8.2.1 0 .2-.2.1-.3-.2-.1-.5-.1-.8-.2z" fill="#000000" stroke-width="none" opacity="1"/>
            </g>
          </g>
          <g id="svga-group-nose-single-move" transform="matrix(1,0,0,1,0,0)">
            <g id="svga-group-nose-single" transform="matrix(1.2500010000000008,0,0,1.2500010000000008,-24.965815271186912,-25.272308348960962)">
              <path id="SvgjsPath15903" d="M103.29 107.27c-1.43 1.14-6.6.84-8.09-1.16-1.49-2.01-1.23-5.37-.71-8.74.52-3.36 3.24-17.34 3.75-18.38.52-1.04 1.75-1.16 2.39 0s3.43 16.63 3.75 20.45.86 6.28-1.09 7.83z" fill="#ffffff" stroke-width="none" opacity="1"/>
              <path id="SvgjsPath15904" d="M95.15 107.24c2.35 1.15 5.1 2.37 7.68 1.14 2.66-1.27 2.67-4.06 2.36-6.63-.96-7.77-2.31-15.48-3.95-23.13-.2-.94-1.65-.54-1.44.4 1.2 5.6 2.24 11.23 3.09 16.89.41 2.72 1.34 5.93.94 8.68-.62 4.25-5.38 2.6-7.91 1.36-.88-.42-1.64.87-.77 1.29z" fill="#000000" stroke-width="none" opacity="1"/>
            </g>
          </g>
          <g id="svga-group-hair-front" transform="matrix(1.0400004000000003,0,0,1.0002004000000002,-3.975832757197594,-0.006180846120077632)">
            <path id="SvgjsPath15293" d="M61.8 42.3s5-2.4 11.2-2.4 34.7 2.1 42.1 1.8 14.4-2.6 16.8-1.5 6.5 3.5 6.5 3.5 2.1-21.8-.9-22.6-23.5-3.5-23.5-3.5l-1.8 3.2-2.4-3.2s-9.7-.9-10.6 0-12.4 1.5-14.7 1.2c-2.4-.3-7.6 0-7.6 0l-.9 2.6-3-2.3-2.4 2.6-3.2-1.2-7.6.6s0 16.5 2 21.2z" fill="#ffffff" stroke-width="none" opacity="1"/>
            <path id="SvgjsPath15294" d="M137.7 20.2c-3-.9-22.8-3.5-23.7-3.6l-.7-.1L112 19l-1.7-2.3h-.5c-9.5-.9-10.9-.1-11.3.2-1.4.6-11.5 1.3-13.9 1s-7.6 0-7.8 0h-.7l-.6 1.9-2.6-2-2.5 2.8-2.8-1-8.8.7v.9c0 .7 0 16.7 2.1 21.6l.4.9.9-.4S67.1 41 72.9 41c2.5 0 8.7.3 15.9.7 10.2.6 21.9 1.2 26.2 1 3.2-.1 6.4-.6 9.2-1.1 3.1-.5 6.1-1 7.1-.5 2.3 1.1 6.4 3.5 6.4 3.5l1.3.8.1-1.5c1.1-10.3 1.7-22.8-1.4-23.7zM68.4 39.4c-1.4-5.2-2.1-10.5-2.2-15.9 0-.8-1.3-.8-1.3 0 .1 5.5.8 10.8 2.2 16.1-2.1.4-3.8 1-4.8 1.4-1.4-4.6-1.6-15.6-1.6-18.9l6.5-.5 3.7 1.3 2.2-2.4 3.3 2.7 1.1-3.4c1 0 3-.1 4.7-.1-.8 6.6-.7 13.1.3 19.7-4.3-.3-7.8-.4-9.5-.4-1.6 0-3.2.1-4.6.4zm18.6.2c-.5-6.2-.6-12.4-.4-18.7 0-.8-1.2-.8-1.3 0-.3 6.2-.1 12.4.3 18.6-.7 0-1.4-.1-2-.1-1.1-6.6-1.2-13.1-.3-19.7.3 0 .6 0 .9.1 1.7.2 13.6-.1 15.4-1.4.9-.3 5.4-.2 9.4.2l3 4.1 2.2-4c.1 0 .3 0 .4.1v.1c-.4 7.4-1.2 14.7-2.5 21.9-4.9-.1-13-.5-20.7-.9-.3-5.5-.3-11 .2-16.5.1-.8-1.2-.8-1.3 0-.3 5.4-.3 10.9 0 16.4-.4 0-.9 0-1.3-.1-.7 0-1.3-.1-2-.1zm42.9-.7c-1.6 0-3.6.3-6 .7-2.7.4-5.8.9-8.9 1.1h-1.5c1.3-7.2 2.1-14.5 2.5-21.8 1.9.2 4.1.5 6.3.8-.1.1-.1.2-.1.3-.5 5.3-.9 10.6-1.4 15.9-.1.8 1.2.8 1.3 0 .5-5.3.9-10.6 1.4-15.9v-.2c5.3.7 10.5 1.5 12.8 2 .6 6.4.1 12.6-1.5 18.8-.6-.3-1.1-.6-1.7-.9 1.6-5.5 2.6-11.1 3.2-16.8.1-.8-1.2-.8-1.3 0-.5 5.5-1.6 10.9-3.1 16.2-.6-.1-1.2-.2-2-.2zm7.5 3.3c-.5-.3-1-.6-1.6-.9 1.6-5.9 2.1-11.8 1.7-17.9.7 3.2.6 11.2-.1 18.8zm-64-17c0-.8-1.2-.8-1.3 0-.1 4.3.1 8.5.7 12.8.1.8 1.3.5 1.2-.3-.5-4.1-.7-8.3-.6-12.5zM102 38.6c.8-5.1 1.1-10.2.7-15.4-.1-.8-1.3-.8-1.3 0 .3 5.1.1 10.1-.7 15.1-.1.7 1.1 1.1 1.3.3zm3-1.6c-.1.8 1.1 1.1 1.2.3.8-4.8.8-9.6-.1-14.4-.2-.8-1.4-.5-1.2.3.9 4.7 1 9.2.1 13.8zm21-13.8c-.4 4.7-.9 9.5-1.3 14.2-.1.8 1.2.8 1.3 0 .4-4.7.9-9.5 1.3-14.2 0-.8-1.2-.8-1.3 0z" fill="#000000" stroke-width="none" opacity="1"/>
          </g>
          <g id="svga-group-glasses-single-move" transform="matrix(1,0,0,1,0,0)">
            <g id="svga-group-glasses-single" transform="matrix(1.1500005000000004,0,0,1.1500005000000004,-14.984586119413422,-13.24373311047367)">
              <path id="SvgjsPath15166" d="M81.31 72.09c-4.36-.64-9.29 0-14.37 5.47s-4.65 12.2-2.13 18.11c2.7 6.33 9.56 8.96 14.25 9.06 4.69.1 10.07-2.54 12.8-5.86s4.4-8.8 3.62-13.29c-.78-4.5-4.21-12.03-14.17-13.49z" fill="url(#SvgjsLinearGradient15167)" opacity="1"/>
              <path id="SvgjsPath15170" d="M118.48 72.09c4.36-.64 9.29 0 14.37 5.47s4.65 12.2 2.13 18.11c-2.7 6.33-9.56 8.96-14.25 9.06-4.69.1-10.07-2.54-12.8-5.86s-4.4-8.8-3.62-13.29c.78-4.5 4.2-12.03 14.17-13.49z" fill="url(#SvgjsLinearGradient15171)" opacity="1"/>
              <path id="SvgjsPath15174" d="M140.77 84.65c-.05-.3-.34-.15-2.02-.69-1.05-.34-1.74-1.16-2.12-1.72-.65-1.77-1.68-3.52-3.23-5.19-5.8-6.24-11.35-6.25-15.03-5.71-8.09 1.19-12.49 6.45-14.19 11.68-.45.13-1.13.19-1.96-.15-1.54-.62-2.13-.99-4.11-.26-1.45.54-1.99.66-2.5.4-1.71-5.23-6.11-10.49-14.19-11.68-3.68-.54-9.23-.54-15.03 5.71-1.55 1.67-2.58 3.42-3.23 5.19-.38.57-1.08 1.38-2.12 1.72-1.67.54-1.97.39-2.02.69s-.1 4.43-.05 4.77c.05.34 1.03.2 2.07.93.8.57 1.39 1.3 1.92 2.24.32 1.2.73 2.33 1.17 3.37 2.72 6.38 9.64 9.41 14.92 9.52h.27c4.7 0 10.18-2.55 13.13-6.14 2.13-2.58 3.5-6.19 3.86-9.68.36-1 1.07-2.71 1.95-3.41 1.28-1.03 2.16-1.61 3.63.48.7 1 1.24 2.1 1.6 2.98.37 3.48 1.74 7.06 3.86 9.63 2.95 3.59 8.44 6.14 13.13 6.14h.27c5.28-.11 12.2-3.14 14.92-9.52.44-1.04.85-2.17 1.17-3.37.52-.94 1.12-1.66 1.92-2.24 1.03-.74 2.02-.59 2.07-.93.04-.33-.01-4.46-.06-4.76zM91.28 98.39c-2.7 3.28-7.97 5.7-12.21 5.59-4.81-.1-11.12-2.84-13.57-8.61-2.02-4.74-3.32-11.59 1.99-17.31 4.12-4.43 8.08-5.44 11.2-5.44.91 0 1.75.09 2.51.2 10.76 1.58 13.09 10.25 13.54 12.87.71 4.08-.75 9.41-3.46 12.7zm43-3.01c-2.46 5.77-8.76 8.51-13.57 8.61-4.24.11-9.51-2.32-12.21-5.59-2.71-3.29-4.16-8.63-3.46-12.69.46-2.62 2.78-11.29 13.54-12.87.75-.11 1.59-.2 2.51-.2 3.13 0 7.09 1.01 11.2 5.44 5.31 5.7 4.01 12.56 1.99 17.3z" fill="#000000" stroke-width="none" opacity="1"/>
            </g>
          </g>
        </g>
      </g>
    </g>
    <rect id="svga-credit-rect" width="200" height="15" x="0" y="185" fill="#ecf0f1" opacity="0.5" style="display: none;"/>
    <text id="svga-credit-text" font-family="Avenir Next, Roboto, Helvetica, Arial, sans-serif" font-size="10px" text-anchor="start" font-weight="400" size="10px" anchor="start" weight="400" fill="#333333" x="33.41924285888672" y="182.43642663955688" style="display: none; white-space: pre;"><tspan id="SvgjsTspan14775" dy="13" x="33.41924285888672">Created on AvatarMaker.com</tspan></text>
  </g>
  <defs id="SvgjsDefs14722">
    <linearGradient id="SvgjsLinearGradient15167" x1="79.3288" y1="71.8854" x2="79.3288" y2="104.7359" gradientUnits="userSpaceOnUse" class="svga-on-canvas-glasses-gradient-single-0-null">
      <stop id="SvgjsStop15168" stop-opacity="1" stop-color="#ffffff" offset="0.0708"/>
      <stop id="SvgjsStop15169" stop-opacity="0" stop-color="#ffffff" offset="1"/>
    </linearGradient>
    <linearGradient id="SvgjsLinearGradient15171" x1="34.9103" y1="71.8854" x2="34.9103" y2="104.7359" gradientTransform="matrix(-1 0 0 1 155.3625 0)" gradientUnits="userSpaceOnUse" class="svga-on-canvas-glasses-gradient-single-1-null">
      <stop id="SvgjsStop15172" stop-opacity="1" stop-color="#ffffff" offset="0.0708"/>
      <stop id="SvgjsStop15173" stop-opacity="0" stop-color="#ffffff" offset="1"/>
    </linearGradient>
  </defs>
  <ellipse style="fill: rgb(216, 216, 216); stroke: rgb(0, 0, 0);" cx="57.474" cy="111.71" rx="0.273" ry="0.409"/>
  <ellipse style="fill: rgb(216, 216, 216); stroke: rgb(0, 0, 0);" cx="67.837" cy="112.664" rx="0.273" ry="0.545"/>
  <ellipse style="fill: rgb(216, 216, 216); stroke: rgb(0, 0, 0);" cx="63.065" cy="120.573" rx="0.409" ry="0.545"/>
  <ellipse style="fill: rgb(216, 216, 216); stroke: rgb(0, 0, 0);" cx="138.606" cy="104.483" rx="0.682" ry="0.273"/>
  <ellipse style="fill: rgb(216, 216, 216); stroke: rgb(0, 0, 0);" cx="133.97" cy="111.982" rx="0.409" ry="0.682"/>
  <ellipse style="fill: rgb(216, 216, 216); stroke: rgb(0, 0, 0);" cx="139.969" cy="119.073" rx="0.409" ry="0.409"/>
  <rect x="93.472" y="119.482" width="4.636" height="4.363" style="stroke: rgb(0, 0, 0);"/>
</svg>