<?xml version="1.0" encoding="utf-8"?>
<svg version="1.1" width="600px" height="600px" viewBox="0 0 200 200" style="overflow:hidden!important;" xmlns="http://www.w3.org/2000/svg">
  <g id="svga-group-wrapper">
    <g id="svga-group-backs-single">
      <path id="SvgjsPath15539" d="M0 0h200v200H0V0z" fill="#270051" stroke-width="none" opacity="1"/>
      <path id="SvgjsPath15540" d="M75.9 12.6C50 52.8 18 117.1 50.4 133.9S129.8 94.2 151 97.2s12.5 39.3-9.9 65.2c-17.2 19.8-61.2 31.1-86.7 37.6H200V0H80.6c-.2 3.7-1.7 7.9-4.7 12.6zM39.6 161.1c-15.5-5.6-22-17.7-15.1-47.5C28.7 95.6 16 84.2 0 83.2V200h37.5c11-12.4 13.5-34.7 2.1-38.9z" fill="#13004f" stroke-width="none" opacity="1"/>
      <path id="SvgjsPath15541" d="M98.7 29.5c-9.3-15.5-28.5-24.1-46-19-7.4 2.2-14.6 6.2-19.8 12-5.5 6.1-8.1 12.2-9.3 20.2-.7 4.4 5.8 8.3 8 3.4 3.6-8.1 11.7-15.6 20.1-18.4 4.6-1.5 9.7-1.9 14.3-.2 4.5 1.6 8.1 5.9 11.4 9.2 3.4 3.5 4.8 7.1 4.2 12-.4 3.9-1.9 8.9-4.9 11.6-2.9 2.5-6.9 3.1-10.5 2.5-2.4-.4-4.9-1.2-7.2-2-2.6-.9-4.5-2.8-7.3-3.2-2.9-.4-6.6.7-7.2 4.1-1.5 8.5 6.3 17 13.6 20.3 9 4.2 20 3.3 28.4-1.8 16.1-9.8 21.9-34.5 12.2-50.7zM200 107.6c-4.1 3.3-7.7 7.1-10.7 11.2-6.3 8.8-10.7 22.6-1.5 31.1 3.5 3.3 7.8 4.7 12.2 5v-47.3zm-73 58.2c-2.5-.7-5.1-1.1-7.7-1.2.3-.4.7-.8 1-1.3 4.1-5.4 9.2-12.6 9.1-19.7-.4-17.7-24.9-18.4-37.7-17.5-15 1.1-29.3 5.9-42.5 13-6.2 3.3-12 7.2-17.7 11.4-4.8 3.5-9.8 7.1-13.4 11.9-.3.2-.5.5-.8.7-3.5 3.1-7.3 6.7-8.3 11.4-1.2 5.5.6 11.4 5.5 14.4 8.4 5.3 21.2 2.1 30.4.6 4-.6 7.9-1.4 11.8-2.2 3.8 3.1 9.2 4.9 13.7 5.5 10.1 1.4 21-.2 28.8-7.2 4.6.6 9.8-.1 14.2-.2 1.4 0 2.9-.1 4.3 0-1 1-2 2-2.9 3-3.7 3.9-7.3 7.6-10.5 11.6h28.4c4.5-4.6 8.7-9.9 9-16.3.4-8.9-6.6-15.6-14.7-17.9zm-.1-122.4c-4.2 11.8-.1 24.1 12 28.7 10.6 4.1 23.2.7 33.2-3.4 9.9-4 19.3-9.1 27.8-15.4V0h-27.2c-9.6 4.4-18.5 10.3-26.6 17.2-8.2 7.1-15.5 15.8-19.2 26.2z" fill="#0a0035" stroke-width="none" opacity="1"/>
      <path id="SvgjsPath15542" d="M200 145c-1.6 1.1-3.1 2.2-4.6 3.2-22.9 15.8-46.9 31.1-65.8 51.8h.4c2.7-3 5.6-5.9 8.5-8.7 18.6-17.7 40.5-31.3 61.5-45.9v-.4zM10.9 200c2-3.4 4.2-6.6 6-9.4 15.4-22.6 36.5-40.8 58.9-56.3 26.9-18.7 56-33.8 83.2-51.9 14.4-9.5 29.4-20 41-33.1v-.5c-12.4 14.1-28.8 25.2-44.2 35.3-25.5 16.6-52.3 30.8-77.4 48-21.2 14.5-41.3 31.1-57 51.7-3.7 4.8-7.9 10.3-11.2 16.2h.7zm73.2-7.8c20.7-19.7 40.2-40.8 62.6-58.7 16.1-12.9 33.9-24.4 53.3-31.6v-.3c-8.6 3.2-16.9 7.3-24.9 11.9-38.6 22.4-67.1 56.9-99.8 86.6h.4c2.9-2.7 5.6-5.3 8.4-7.9zM0 154.1v.6c15.9-14.9 36.8-25.3 57.4-31.9 33.6-11 69.9-15 102.6-28.8-50.6 20.8-114.9 20.3-156.8 57.2-1.1 1-2.2 1.9-3.2 2.9zm200-85.3c-7.1 6.6-15.1 12.3-23.5 17.1-5.4 3.1-10.9 5.7-16.5 8.1 14.8-6.1 28.4-14 40-25.2zM144.1 0c-.3 1.5-.6 2.9-1.2 4.3-5.5 14.8-21.3 24.1-34.8 30.6C93.2 42.2 77 46.6 60.5 47.8c-16.4 1.3-34.6.3-48.9-8.4C7.1 36.7 3.1 33.1 0 28.9v.8c1.1 1.4 2.3 2.7 3.5 4C16.6 46.4 36 49 53.5 48.6c18.9-.5 37.7-5 54.7-13.2 14.2-7 31.5-17.4 35.8-33.8.1-.5.3-1.1.4-1.6h-.3z" fill="#49006b" stroke-width="none" opacity="1"/>
      <path id="SvgjsPath15543" d="M55.2 17.1c20.4 0 36.9 16.5 36.9 36.9S75.6 90.9 55.2 90.9 18.3 74.4 18.3 54s16.5-36.9 36.9-36.9z" fill="#b74513" stroke-width="none" opacity="1"/>
      <path id="SvgjsPath15544" d="M74.6 130.2c16.2 0 29.4 13.2 29.4 29.4S90.8 189 74.6 189s-29.4-13.2-29.4-29.4 13.2-29.4 29.4-29.4z" fill="#1350bc" stroke-width="none" opacity="1"/>
      <path id="SvgjsPath15545" d="M145.8 29c11.6 0 21 9.4 21 21s-9.4 21-21 21-21-9.4-21-21 9.4-21 21-21z" fill="#48a1af" stroke-width="none" opacity="1"/>
      <path id="SvgjsPath15546" d="M63.2 21.2c0 7.9-3 17-10.2 24.2s-24.2 22-9.2 20.1S60.4 43.7 67 37.1c5.7-5.7 10.3-9.5 15.3-8.2-5.4-5.8-12.7-9.9-20.9-11.3 1.1 1 1.8 2.2 1.8 3.6zM21.7 69.3c1.5-3.1 2-9 3.8-11.7 2.6-3.9 15.9-17.5 18.3-24 2.4-6.5 3.3-13.5.2-8.3s-2 6.3-7.8 12-9.6 15-8.9 8.1c.6-7 3.9-13.3 7.2-15.9s7.2-3.9 8.1-7.6c.3-1.3.2-2-.1-2.4-14 5.2-24 18.7-24 34.6-.1 5.4 1 10.6 3.2 15.2zm44.4 20c1.7-5.5 4.6-11.8 7.4-16.8 6.3-11.1 10.9-35.3 6.3-23.8-4.6 11.6-5.2 18.5-13.7 26-8.5 7.4-14.4 9.2-17.5 9.6s6.8-7 8.7-9.2c2-2.2 4.6-7.8-1.5-3.3S49 77.9 44 80.3c-4.5 2.2-8.2-.3-11.9 2.4 6.3 5.1 14.3 8.1 23.1 8.1 3.8.1 7.5-.5 10.9-1.5z" fill="#c62500" stroke-width="none" opacity="1"/>
      <path id="SvgjsPath15547" d="M58.1 46.4c-3.4 4.2-5.3 4.4-8.5 8.9S44 62.6 47 61.4c3-1.2 6.4-3.7 8.3-7.4s2.8-7.6 2.8-7.6zM21 59.4c1-4 .2-6.3 1.6-8.3S26 45 26 45s-2.2 6.1-2.8 8.3-2.2 6.1-2.2 6.1zm69.5-1.7c-1 7.5-8.7 15.3-12.1 17.8-3.4 2.6-7.9 9.7-5.7 7.9s5.3-5.9 8.5-7.9 4.9-3.2 6.9-6.5c.5-.9 1.2-1.8 1.9-2.8 1.3-3.8 2.1-7.9 2.1-12.1 0-4.4-.8-8.6-2.2-12.5.3 4.8 1.3 10.7.6 16.1zM58.3 86.8c-3.4 2.5-6.3 3-10.7 3.3 2.5.5 5 .8 7.7.8 1.8 0 3.6-.1 5.3-.4 1.5-1.9 3-4.2 5-6.5 4.2-4.8 6.5-11.7 5.7-11.9-.8-.2-8.1 11.1-13 14.7zM84 30.9c-6.3 1.5-12.6 6.1-15.4 8.6-3.6 3.2-6.3 15.8-12.5 24.7s-18 4.6-20 1.2 1.2-3.4 3.4-8.1 5.9-6.5 9.3-9.5c3.4-3 10.1-15.2 11.7-20 1.3-4 1-7.4-.5-10.3-.3 0-.6-.1-1-.1-.1 1.6-.3 4.2-.5 6.7-.4 4-4.2 12.3-7.3 16.8C48 45.4 36.9 55.1 33.9 59c-3 4-4.9 12.7 2 15.2s19.4-3.2 22.2-6.9S68.4 45.2 70.3 41c1.4-2.8 9.5-6.8 14.5-9-.2-.4-.5-.8-.8-1.1zm2.8 4c-5.6 2.9-11.3 5.2-13.5 12.1-2.6 7.9-1.6 7.7-3.8 13.7s-5.7 10.9-3 8.1c2.7-2.8 6.5-17.4 7.7-20.6s2-6.1 4.6-7.9c2.3-1.6 6.9-3.4 8.5-4.4-.1-.4-.3-.7-.5-1zM49 17.9c-.4 3.6 1 3.8 1.6 8.5s-.2 5.5-1 9.1-5.7 7.1-8.1 9.7-8.9 7.9-10.5 10.1-3.4 11.1-3.6 15.8c-.1 1.8-.6 3.8-1.3 5.5.3.4.7.9 1.1 1.3 1.2-5.9 2.7-17.4 4.6-21.5 2.2-4.8 8.3-8.1 15.6-15s3.8-7.1 5.7-12.7c1.4-3.9.8-8.2-.1-11.6-1.4.1-2.7.2-4 .5v.3zM18.4 53.5c1-1.9 2-4.2 2.7-6.7 1.8-6.9 2.8-5.2 6.7-12.3 2.4-4.3 4.3-7.4 5-9.8-8.6 6.7-14.3 17.1-14.4 28.8z" fill="#d66c03" stroke-width="none" opacity="1"/>
      <path id="SvgjsPath15548" d="M30.2 81.6s-4 10.9-5 17.3 3.3 18.8 32.7-15.3 37.7-64.8 35.5-70.4S78 17.7 78 17.7 88.1 7.4 95 9.5c6.8 2.1-.7 23.8-13.7 45.7s-31.8 45-48 52.7-12.2-9.1-3.1-26.3z" fill="#841000" stroke-width="none" opacity="1"/>
      <path id="SvgjsPath15549" d="M30.2 82.4s-8.4 18.3-4.5 23.7c3.5 4.8 26.4-11.9 41.7-35.2s29.7-51.3 27.3-58.4-20.2 7.8-20.2 7.8 12.2-7.8 16.2-7.8-.7 13.7-4.9 22.4-20 35.1-32 49.4-25.9 22.1-27.1 18.4c-1.2-3.8.9-14.6 3.5-20.3z" fill="#ffb852" stroke-width="none" opacity="1"/>
      <path id="SvgjsPath15550" d="M162.4 62.8c-4.5 3.6-9.8 6.4-15.5 6.7 1.5-1.4 2.9-2.9 4.2-4.4 4.5-5.1 9.1-8.3 14.8-11.7l.6-.3c.1-.4.1-.8.1-1.2-1.7 1.2-3.6 2-5.5 3-.5.3-1 .5-1.4.8l3.9-3c1-.8 2.1-1.5 3.1-2.2v-.2c0-.5 0-.9-.1-1.4-3.7 3.5-8.4 6.8-12.5 9.5-6.9 4.5-15.2 4.2-22.7 6.9 0 0 0-.1-.1-.1 3.2-2.3 6.8-4.3 9.6-6.3 5.6-4 11-8.4 15.4-13.6 1.9-2.3 3.8-5.5 5-8.9l-1.2-1.2c-3.1 8.3-13.5 17-18.9 21-2.7 2-6.3 4-9.6 6.2.3-.4.6-.8.9-1.1 5.3-6.2 11.6-11.5 16.6-17.9 2.6-3.3 5.2-7.7 5.3-12.1-.7-.3-1.5-.6-2.2-.9.1.4.1.8.1 1.1-.1 2.1-.9 4.2-1.8 6-1.5 2.9-3.6 5.5-5.9 7.9-4.4 4.8-9.3 9.3-13.6 14.3-.2.2-.3.4-.5.6.4-3.2 2.1-6.6 3.7-9.2.8-.7 1.5-1.4 2.2-2.1 1.4-1.5 2.9-3.2 4.1-5.1 1.6-1.6 3.2-3.1 4.6-4.9 2.2-2.8 3.4-6.3 2.6-9.4h-.7c.9 3.5-1.5 7.2-4.6 10.7.8-2.2 1.1-4.5.3-6.7-.6-1.6-1.4-2.7-2.4-3.4-2 .5-3.8 1.3-5.5 2.3 1.6.4 3.1.8 4.7 1.3-1.1 3.9-3.6 6.8-7.1 9.1-.8.6-1.7 1.1-2.6 1.5-.7.2-1.3.5-2 .7-1 .5-1.8.6-2.5.2-.4 1.7-.7 3.4-.7 5.2v.5c.8.6 2.1.9 3.8.8.9 0 1.8-.3 2.7-.6-.8.6-1.5 1.1-2.4 1.6-1.1.7-2.4 1.5-3.8 1.8.1.6.3 1.1.4 1.6 2.1-.6 4.1-1.6 5.9-2.8-1.3 2.6-2.4 5.8-2.3 8.7-.2.2-.3.4-.5.6 1.1 1.5 2.3 2.8 3.7 4 4.9-1.8 10.2-2.1 15.3-3.6 2.6-.8 5-2 7.2-3.5-1.2 1-2.3 2.1-3.4 3.2-2.9 2.9-5.6 6-8.8 8.5.8.1 1.6.2 2.4.2l.2-.2c1.6.1 3.2 0 4.9-.3 5.3-1.6 9.6-4.4 12.5-8.2zm-33.8-13.3c-1.9.4-3.1-.5-3.5-2.8.6.1 1.3 0 2.1-.1 5.8-.8 12.9-6.7 13.7-12.9.1 0 .1 0 .2.1 1.4 1.9-.5 5.6-1.5 7.3-.5.9-1.1 1.8-1.7 2.6-1.4 1.6-3.1 3-5.1 4.2-1.2.9-2.5 1.7-4.2 1.6zm34.9-9.1c.1-.4.3-.7.4-1.1-.3-.5-.6-1-.9-1.4-1 2.5-2.3 5-2.4 7.6-.1 2.2 1.4 3.8 3.6 3.7.9 0 1.8-.3 2.5-.8 0-.5-.1-1-.1-1.4-.2.2-.4.3-.6.4-1.4 1.3-2.8.7-4-1.9.1-.9.3-1.7.6-2.5.2-.8.5-1.7.9-2.6z" fill="#6bd3dd" stroke-width="none" opacity="1"/>
      <path id="SvgjsPath15551" d="M139 63.7c3.7-2 7.5-3 10.8-5.7-3.3 2.4-7.5 3.7-10.9 5.6-.1 0 0 .1.1.1zm15.6-11.9c-1-1.3-3.6 1.8-4.1 2.2-2.1 1.8-4.1 3.6-6.6 5-1.7 1-3.4 1.9-4.6 3.5-.1.1.1.2.1.1 2.1-2.3 5.2-3.4 7.7-5.3 1-.8 1.9-1.6 2.8-2.4.5-.5 1-1 1.6-1.4.9-.6 3.3-2 2.2.1-.5 1-1.1 1.8-1.8 2.5 1.5-1.4 3.4-3.4 2.7-4.3zm-4.8 6.2c.7-.5 1.4-1.1 2.1-1.8-.9.8-1.6 1.5-1.9 1.7-.1 0-.1.1-.2.1zm-2.1-19.3c-1.1 1.8-2.6 3.5-4.1 5-2.1 2.1-4.3 4-6.6 5.9-3.5 2.9-7.1 5.7-10.3 9 .1.1.1.2.2.4 5.8-5.6 12.7-10.1 18.1-16.1 3.6-4 6.5-9.5 3-13.7h-.7c1.8 2.6 1.9 6.9.4 9.5zm13.9 24.1c-4 3.1-9 6.4-14.3 8.2.9-.1 1.7-.2 2.5-.3 4.5-1.9 8.7-4.8 12.1-7.4.1-.1.2-.1.3-.2.5-.6.9-1.2 1.3-1.8-.6.4-1.2.9-1.9 1.5zM154 34.9c-.1.7-.5 3-1.1 3.2-2.4.7-1-1.7-.8-2.4.6-2 .6-4.1-.4-5.8-.1 0-.2-.1-.3-.1.8 1.4 1 3 .7 4.7-.2 1-1.1 2.4-1 3.5.1.8.7 1.3 1.4.9 1.2-.6 1.8-3.5 1.9-4.6.2-1.2.1-2.3-.1-3.5-.1 0-.2-.1-.3-.1.2 1.3.2 2.7 0 4.2zm-26.3 4.6c1.3-.8 2.8-1.4 4.1-2 .5-.2 1-.5 1.5-.8.1-.1.2-.1.3-.2.1 0 .2-.1.2-.2.3-.2.6-.5.9-.7 1.7-1.4 3.1-3.3 3.8-5.2-.3.1-.5.2-.8.3-.1.2-.2.3-.2.5-.1.2-.2.5-.4.7.1-.2.1-.4.2-.6V31c-.3.1-.5.2-.8.4-.1.7-.3 1.3-.6 1.8-1.1 2.4-3.2 3.5-5.5 4.5-.2.1-.3.1-.5.2-.5.1-.9.2-1.4.3-.1.1-.1.2-.2.3h.6c-.3.1-.5.2-.8.4-.1 0-.2.3-.4.6zm8.3 4.1c1.5-1.9 3.3-5.4 4.2-8.9.8-1.7 1.6-3.5 2.2-5.4-.1 0-.3 0-.4.1-.4 1.2-.9 2.4-1.4 3.5.1-.5.1-1 .1-1.5.2-.4.3-.8.3-1.2v-.6c-.2 0-.4.1-.7.2v.2c-.1.6-.2 1.2-.6 1.9-.5 1-1.6 1.9-2.4 2.7-2.8 2.7-6.4 5.5-10.3 6-.1.2-.2.3-.2.5 2.5-.2 4.8-1.4 6.9-2.9 2.1-1.4 5.2-3.6 6.6-6.2 0 .5-.1 1.1-.2 1.6C139 36 137.8 38 137 39c-1.2 1.7-7.7 8.8-12.1 9.1v.5c4.4-.4 11-7.2 12.5-9.3.6-.8 1.4-2.1 2.2-3.6-.7 2.3-1.8 4.5-2.7 5.9-1.1 1.6-2.4 3.1-3.8 4.4-1.1 1-2.4 2-3.7 2.7-1.8 1.1-3.3 1.5-4.6 1.2v.5c4.4.4 8.7-3.7 11.2-6.8zm-4.4 8.4c3.8-4 9-7.1 12-11.8 2.1-3.2 3.1-7.3 1.1-10.9-.1-.1-.1-.2-.2-.2-.8 0-1.5.1-2.2.2l2.7 1.6c.1 1.1.3 2.1.4 3.2-.1 3-1.5 5-3.2 7.2-1.6 1.9-3.4 3.5-5.2 5-3.4 2.9-6.7 6-9.4 9.5-.4.6-.9 1.2-1.3 1.9.1.1.1.3.1.4 1.7-2.3 3.6-4.4 5.2-6.1zm30.8 3.8c-.2.3-.3.6-.5.9-3.2 2.1-6.6 3.9-9.2 6.7-2.5 2.7-4.7 5.3-7.2 7.4-.1.1-.2.1-.3.2h1.5l.3-.3c6.3-3.1 11.8-7.5 15.4-13.7 1.5-.9 2.8-1.8 4.1-2.9.1-.3.1-.6.1-.8-1.1 1.1-2.4 2-3.7 2.9.2-.4.5-.9.7-1.3 1.4-2.8 2.3-6.2 2.6-9.8-.1-.4-.2-.8-.3-1.3-.3 4.2-1.5 8.4-3.5 12zm-14.3 13.7c1.1-1.1 2.1-2.2 3.1-3.5 3-3.5 6.2-6.2 10.2-8.5-3.3 5.3-8 9.2-13.3 12zm-2.9-3.9c-2.6 1.4-5.4 2.6-8.3 3.4.6.3 1.2.5 1.8.7 2.3-.9 4.4-2 6.4-3.3 3.4-1.9 6.5-4.2 9.3-7.3 5.4-6.1 8.4-14 7.9-21.9-.2-.3-.4-.5-.6-.8.6 8.8-2.7 17.4-9.3 23.8-1 .9-2 1.8-3 2.5 2-2 3.8-4.4 5.2-7.1 1.4-2.6 2.4-5.2 3.1-7.8 1.5-4.7 1.8-9.6.8-14.5-.2-.2-.5-.4-.8-.6.4 1.4.6 2.8.7 4.3-.2-1.3-.5-2.5-.9-3.8V33v.2c-.1-.3-.2-.5-.3-.8-.2-.1-.3-.2-.5-.3.3.7.5 1.3.7 2-.2 2.3-1.2 4.7-2.6 7 .1-.4.3-.8.4-1.1.7-2.3 1-5.4.7-8.3l-.6-.3c.3 2.6 0 5.4-.6 7.7-.5 1.8-1.1 3.6-2 5.2-2.2 3-4.7 5.7-6.4 7-4.7 3.8-12.9 8.5-19.7 7.7.1.1.1.2.2.3 8.3 1.2 18.9-6.2 23.8-11.4-1.2 1.7-2.5 3.2-4 4.6-3.9 3.6-13 7.2-15.4 12.7.1.1.3.2.4.4 2.9-5.6 11.1-8.5 15.5-12.6 2.9-2.7 5.2-5.9 6.8-9.5 1.7-2.8 3.1-6.2 3.4-9.3.6 1.9 1 3.8 1 5.8 0 .5 0 1-.1 1.6 0 .4-.1.8-.1 1.2 0 .2 0 .3-.1.5-.1.5-.1 1-.2 1.4 0 .2-.1.4-.1.6-.1.5-.2.9-.3 1.4 0 .1-.1.2-.1.3-.7 2.4-1.7 4.7-3.1 6.9-2.6 4.2-6.2 7.7-10.3 10.3-2.2 1.4-5.4 3.3-8.5 4.1.3.2.6.3 1 .5 5.9-1.8 12.2-7.1 15.2-10.5.8-.9 1.5-1.9 2.2-2.8-.1.2-.2.3-.3.5-2 4.1-4.9 7.2-8.3 9.6z" fill="#ffffff" stroke-width="none" opacity="1"/>
      <path id="SvgjsPath15552" d="M57 137.1c6.6 3.6 13.7 6.1 21.1 7.3 6.2 1 14.8 2.1 19.7-2.9-.3-.4-.6-.7-.8-1.1-1.2-1.4-2.6-2.8-4-3.9-.2.1-.4.3-.6.4-2.2 1.3-5.9.8-8.2.5-5.1-.5-10.2-1.8-14.9-3.7-1.5-.6-3-1.3-4.5-2-3 1.1-5.9 2.7-8.5 4.8.1.3.4.5.7.6zm15.3 32.7c-7.6-1.2-15.3-3-22.1-6.7-1.8-1-3.5-2.1-5.1-3.2.1 6.7 2.4 13.4 7 18.8 8.3 9.7 21.5 12.7 32.8 8.4-3.1-.3-6.3-1-9.2-2-6.1-2.1-11.5-5.6-16.8-9.2 5 1.3 10.2 2 15.2 2.6 8 .9 16.3.7 23.9-1.3 2.5-3.4 4.3-7.2 5.2-11.2-.5 0-.9-.1-1.4-.1-8.8-.7-17.3-3.7-25.5-7-8.2-3.4-16.3-7.4-23.2-13.1-1-.8-2-1.7-3-2.6-1.4 2.1-2.5 4.3-3.3 6.6 5 4.4 11.2 7.7 16.3 10.3 8.9 4.5 18.6 8.3 28.5 10.4-6.5.7-13.1.2-19.3-.7z" fill="#003daa" stroke-width="none" opacity="1"/>
      <path id="SvgjsPath15553" d="M104.2 161.9c.4-3.9-.1-7.8-1.2-11.6-1.2-3.7-3.1-7.2-5.7-10.2s-5.7-5.5-9.2-7.2c-3.5-1.8-7.3-2.8-11.2-3.1-7.8-.6-15.8 2.1-21.6 7.2-2.9 2.6-5.3 5.7-7.1 9.1-1.7 3.5-2.8 7.2-3.1 11.1-.3 3.9.1 7.8 1.3 11.5s3 7.2 5.5 10.2 5.6 5.5 9.1 7.2c3.5 1.8 7.3 2.8 11.2 3 7.8.5 15.6-2.2 21.5-7.2 5.9-4.9 9.7-12.2 10.5-20zm-.7-.3c-6.8 1.4-14.5.7-20.9-.7-1.4-.3-2.8-.7-4.2-1 .9 0 1.8 0 2.8-.1 7.3-.5 15.9-2.5 21.2-7.9.9 3.1 1.3 6.4 1.1 9.7zm-1.3-10.6c-4.5.6-9.4-.4-13.4-1.3-5.7-1.4-11.1-3.7-16-6.8-4-2.6-7.7-5.8-10.8-9.4 1.2-.6 2.4-1 3.6-1.4.1 0 .2-.1.3-.1 4.6 2.6 10.9 3.3 15.6 3.8 2.9.3 6.3.5 9.6.2 2 1.4 3.8 3.1 5.4 4.9 2.6 2.9 4.5 6.3 5.7 10.1zm-25.4-20.3c4.7.4 9.2 1.9 13.2 4.4-1.8.2-3.6.2-5.1.2-3.9-.1-7.9-.7-11.7-1.6-1.3-.3-2.7-.7-4-1.1-.8-.3-1.6-.6-2.3-1 3.2-.8 6.6-1.2 9.9-.9zm-15.4 2.9c2.3 2.6 4.9 4.9 7.4 6.9 6.2 4.9 13.6 8.2 21.3 9.8 3.5.7 8.1 1.5 12.1 1v.1c-1.4 1.4-2.9 2.6-4.6 3.6-6.1 3.5-13.7 4.7-20.8 4.5-4.2-1.3-8.2-2.9-12-5.1-2.7-1.5-5.2-3.2-7.5-5.3-1.2-1.1-2.4-2.2-3.4-3.6-.5-.7-1.6-2.2-2.5-4 1.2-1.5 2.6-2.9 4.1-4.2 1.9-1.4 3.9-2.6 5.9-3.7zM51.2 142c1 1.9 2.3 3.6 3 4.5 5.3 6.3 13.2 10.3 21 12.9-.3 0-.6 0-.9-.1-9.2-.6-19.3-3.5-27.6-8.7 1-3 2.5-6 4.5-8.6zm-4.7 9.3c9.1 5.6 20.4 8.4 30.4 8.6 7.5 2.3 17.8 4 26.6 2.2-.3 3.7-1.2 7.3-2.9 10.7-.9 1.8-2 3.5-3.3 5.1-1.9.8-3.9 1.5-5.9 1.9-14.6 3.1-30.2-2.8-41.8-11.7-1.3-1-2.5-2.1-3.7-3.2-.5-2.6-.7-5.2-.5-7.8.1-1.8.5-3.8 1.1-5.8zm-.4 14.5c5.9 5.4 13.4 9.4 20.5 12 9.6 3.6 20.6 4.4 30.2.8-.7.8-1.3 1.5-2.1 2.2-3.3 1.8-6.9 3.1-10.7 4-3.9.4-7.9.3-11.8-.2-6.3-.8-13.9-3.2-20.5-7.1-2.7-3.4-4.6-7.4-5.6-11.7zM93.4 182c-.6.5-1.3 1-2 1.5-1.4.3-2.7.6-4.1.9 2.1-.6 4.1-1.4 6.1-2.4zm-41.1-3.8c6.5 3.9 13.9 6.4 21.5 7.2 2.2.2 4.4.3 6.6.2-4 .7-8 .9-11.8.8-2.2-.1-4.3-.3-6.4-.6-3.7-1.8-7-4.3-9.7-7.4 0-.1-.1-.1-.2-.2zm20 10.4c-2.9-.3-5.7-1-8.4-2.1 1.5.2 3.1.4 4.7.4 4.9.1 10.2-.3 15.4-1.6 2.1-.2 4.3-.6 6.4-1-2.1 1.3-4.3 2.4-6.7 3.1-3.8 1.1-7.6 1.5-11.4 1.2z" fill="#ffffff" stroke-width="none" opacity="1"/>
      <path id="SvgjsPath15554" d="m111.5 40.1-2.4-.2c-.1 0-.3 0-.4.2l-1.5 1.8c-.2.3-.7.2-.7-.2l-.5-2.3c0-.1-.1-.2-.2-.3l-2.2-.9c-.3-.1-.4-.6-.1-.7l2-1.2c.1-.1.2-.2.2-.3l.1-2.4c0-.3.4-.5.7-.3l1.8 1.5c.1.1.2.1.4.1l2.3-.6c.3-.1.6.2.5.6l-.9 2.2c-.1.1 0 .3 0 .4l1.3 2c.2.3 0 .7-.4.6zm42.6 118.5-2.4-.2c-.1 0-.3.1-.4.1l-1.5 1.9c-.2.3-.6.2-.7-.2l-.6-2.3c0-.1-.1-.2-.2-.3l-2.2-.9c-.3-.1-.4-.6-.1-.7l2-1.2c.1-.1.2-.2.2-.3l.1-2.4c0-.3.4-.5.7-.3l1.8 1.6c.1.1.2.1.4.1l2.3-.6c.3-.1.6.2.5.6l-.9 2.2c-.1.1 0 .3 0 .4l1.3 2c.3.2 0 .5-.3.5zM17.2 34.2l-2.4-.2c-.1 0-.3 0-.4.2L13 36c-.2.3-.6.2-.7-.2l-.6-2.3c0-.1-.1-.2-.2-.3l-2.2-.9c-.3-.1-.4-.6-.1-.7l2-1.2c.1-.1.2-.2.2-.3l.1-2.4c0-.3.4-.5.7-.3L14 29c.1.1.2.1.4.1l2.3-.6c.3-.1.6.2.5.6l-.9 2.2v.4l1.3 2c.2.2-.1.5-.4.5zm81.6 75.5-2.4-.2c-.1 0-.3.1-.4.2l-1.5 1.8c-.2.3-.7.2-.7-.2l-.6-2.3c0-.1-.1-.2-.2-.3l-2.2-.9c-.3-.1-.4-.6-.1-.7l2-1.2c.1-.1.2-.2.2-.3l.1-2.4c0-.3.4-.5.7-.3l1.8 1.6c.1.1.2.1.4.1l2.3-.6c.3-.1.6.2.5.6l-.9 2.2c-.1.1 0 .3 0 .4l1.3 2c.2.1 0 .5-.3.5zm-43.3 20.9-2.4-.2c-.1 0-.3.1-.4.1l-1.5 1.9c-.2.3-.7.2-.7-.2l-.5-2.3c0-.1-.1-.2-.2-.3l-2.2-.9c-.3-.1-.4-.6-.1-.7l2-1.2c.1-.1.2-.2.2-.3l.1-2.4c0-.3.4-.5.7-.3l1.8 1.6c.1.1.2.1.4.1l2.3-.6c.3-.1.6.2.5.6l-.9 2.2v.4l1.3 2c.1.1-.1.5-.4.5zM172.7 112l-1.5-.1c-.1 0-.2 0-.2.1l-1 1.2c-.1.2-.4.1-.5-.1l-.4-1.5c0-.1-.1-.2-.2-.2l-1.4-.6c-.2-.1-.2-.4 0-.5l1.3-.8c.1-.1.1-.1.1-.2l.1-1.5c0-.2.3-.3.4-.2l1.1 1c.1.1.2.1.2.1l1.5-.4c.2-.1.4.2.3.4l-.6 1.4v.2l.8 1.3c.4.2.2.5 0 .4zm20.7 76-1.5-.1c-.1 0-.2 0-.2.1l-1 1.2c-.1.2-.4.1-.5-.1l-.4-1.5c0-.1-.1-.1-.2-.2l-1.4-.6c-.2-.1-.2-.4 0-.5l1.3-.8c.1-.1.1-.1.1-.2l.1-1.5c0-.2.3-.3.4-.2l1.1 1c.1.1.2.1.2.1l1.5-.4c.2-.1.4.1.3.4l-.6 1.4v.2l.8 1.3c.3.2.2.4 0 .4zM78.6 96.5l-1.6-.1c-.1 0-.2 0-.2.1l-1 1.2c-.1.2-.4.1-.5-.1l-.3-1.5c0-.1-.1-.2-.2-.2l-1.4-.6c-.2-.1-.2-.4 0-.5l1.3-.8c.1-.1.1-.1.1-.2l.1-1.5c0-.2.3-.3.4-.2l1.2 1c.1.1.2.1.2.1l1.5-.4c.2-.1.4.2.3.4l-.5 1.4v.2l.8 1.3c.1.1 0 .4-.2.4zm47.6 61.6-1.5-.1c-.1 0-.2 0-.2.1l-1 1.2c-.1.2-.4.1-.5-.1l-.3-1.5c0-.1-.1-.1-.2-.2l-1.4-.6c-.2-.1-.2-.4 0-.5l1.3-.8c.1-.1.1-.1.1-.2l.1-1.5c0-.2.3-.3.4-.2l1.2 1c.1.1.2.1.2.1l1.5-.4c.2-.1.4.1.3.4l-.6 1.4v.2l.8 1.3c.1.2 0 .5-.2.4zm54.9-74.2-1.2-.9c-.1-.1-.2-.1-.2 0l-1.4.5c-.2.1-.4-.1-.3-.3l.4-1.4v-.2l-.9-1.2c-.1-.2 0-.4.2-.4h1.5c.1 0 .2 0 .2-.1l.8-1.3c.1-.2.4-.2.5.1l.5 1.4c0 .1.1.2.2.2l1.5.4c.2.1.3.3.1.5l-1.2.9c-.1.1-.1.1-.1.2l.1 1.5c-.2.1-.5.3-.7.1zM19.7 20.1l-1.2-.9c-.1 0-.2-.1-.2 0l-1.4.5c-.2.1-.4-.1-.3-.3l.5-1.5v-.2L16 16.5c-.1-.2 0-.4.2-.4h1.5c.1 0 .2 0 .2-.1l.8-1.3c.1-.2.4-.1.5.1l.5 1.4c0 .1.1.1.2.2l1.5.4c.2.1.3.3.1.5l-1.2.9c-.1 0-.1.1-.1.2l.1 1.5c-.1.2-.4.3-.6.2zm-4.6 160.4-1.2-.9c-.1-.1-.2-.1-.2 0l-1.4.5c-.2.1-.4-.1-.3-.3l.4-1.4v-.2l-.9-1.2c-.1-.2 0-.4.2-.4h1.5c.1 0 .2 0 .2-.1l.8-1.3c.1-.2.4-.1.5.1l.5 1.4c0 .1.1.1.2.2l1.5.4c.2.1.3.3.1.5l-1.2.9c-.1.1-.1.1-.1.2l.1 1.5c-.2 0-.5.2-.7.1zm9.2-23.9-1.2-.9c-.1-.1-.2-.1-.2 0l-1.4.5c-.2.1-.4-.1-.3-.3l.5-1.4v-.2l-.9-1.2c-.1-.2 0-.4.2-.4h1.5c.1 0 .2 0 .2-.1l.8-1.3c.1-.2.4-.1.5.1l.5 1.4c0 .1.1.1.2.2l1.5.4c.2.1.3.3.1.5l-1.2.9c-.1.1-.1.1-.1.2l.1 1.5c-.4.1-.6.2-.8.1zM126.9 91l-2.5-2.6c-.1-.2-.3-.2-.6-.2l-3.5.6c-.5.1-.9-.4-.7-.9l1.7-3.2c.1-.2.1-.4 0-.6l-1.7-3.2c-.2-.5.1-1 .7-.9l3.5.6c.2 0 .4 0 .6-.2l2.5-2.6c.4-.4 1-.2 1.1.3l.5 3.6c0 .2.2.4.3.5l3.2 1.6c.5.2.5.9 0 1.1l-3.2 1.6c-.2.1-.3.3-.3.5l-.5 3.6c-.1.6-.8.8-1.1.4zm7.1 92.6-2.5-2.6c-.1-.1-.4-.2-.6-.2l-3.5.6c-.5.1-.9-.4-.7-.9l1.7-3.2c.1-.2.1-.4 0-.6l-1.7-3.2c-.2-.5.1-1 .7-.9l3.5.6c.2 0 .4 0 .6-.2l2.5-2.6c.4-.4 1-.2 1.1.3l.5 3.6c0 .2.2.4.3.5l3.2 1.6c.5.2.5.9 0 1.1l-3.2 1.6c-.2.1-.3.3-.3.5l-.5 3.6c-.2.6-.8.8-1.1.4zm51.8-150.1-3.4-1.2c-.2-.1-.4 0-.6.1l-2.9 2.1c-.4.3-1 0-1-.5l.1-3.6c0-.2-.1-.4-.3-.5l-2.9-2.1c-.4-.3-.3-1 .2-1.1l3.4-1c.2-.1.4-.2.4-.4l1.1-3.4c.2-.5.8-.6 1.1-.2l2 3c.1.2.3.3.5.3h3.6c.5 0 .8.6.5 1l-2.2 2.8c-.1.2-.2.4-.1.6l1.1 3.4c.3.4-.2.9-.6.7zM32.1 142.8l-3.4-1.2c-.2-.1-.4 0-.6.1l-2.9 2.1c-.4.3-1 0-1-.5l.1-3.6c0-.2-.1-.4-.3-.5l-2.9-2.1c-.4-.3-.3-1 .2-1.1l3.4-1c.2-.1.4-.2.4-.4l1.1-3.4c.2-.5.8-.6 1.1-.2l2 3c.1.2.3.3.5.3h3.6c.5 0 .8.6.5 1l-2.2 2.8c-.1.2-.2.4-.1.6l1.1 3.4c.4.4-.1.8-.6.7z" fill="#ffd86c" stroke-width="none" opacity="1"/>
      <path id="SvgjsPath15555" d="M107 42.6h-.2c-.3-.1-.6-.3-.7-.7l-.6-2.3-2.2-.8c-.3-.1-.6-.4-.6-.8s.1-.7.4-.9l2-1.2.1-2.3c0-.3.2-.7.6-.8s.7-.1 1 .2l1.8 1.5 2.2-.6c.3-.1.7 0 .9.3.2.3.3.6.2 1l-.9 2.2 1.3 1.9c.2.3.2.7 0 1s-.5.5-.9.4l-2.4-.2-1.4 1.8c-.1.2-.4.3-.6.3zm-3.1-4.7 2.1.8c.3.1.5.3.6.6l.5 2.2 1.4-1.7c.2-.2.5-.4.8-.3l2.3.2-1.3-1.9c-.2-.2-.2-.6-.1-.8l.8-2-2.1.6c-.3.1-.6 0-.8-.2l-1.7-1.4-.1 2.2c0 .3-.2.6-.4.7l-2 1zm7.7 1.7zm37.9 121.5h-.2c-.3-.1-.6-.3-.7-.7l-.6-2.3-2.2-.8c-.3-.1-.6-.4-.6-.8s.1-.7.4-.9l2-1.2.1-2.3c0-.4.2-.6.6-.8s.7-.1 1 .1l1.8 1.6 2.2-.6c.3-.1.7 0 .9.3s.3.6.2.9l-.9 2.2 1.3 1.9c.2.3.2.7 0 1s-.5.5-.9.4l-2.4-.2-1.4 1.8c0 .3-.3.4-.6.4zm-3.1-4.7 2.1.8c.3.1.5.4.6.6l.5 2.2 1.4-1.7c.2-.2.5-.4.8-.3l2.3.2-1.3-1.9c-.2-.2-.2-.6-.1-.9l.9-2.1-2.1.6c-.3.1-.6 0-.8-.2l-1.7-1.4-.1 2.2c0 .3-.2.6-.4.7l-2.1 1.2zm7.7 1.7zM12.6 36.7h-.2c-.3-.1-.6-.3-.7-.7l-.6-2.3-2.1-.8c-.3-.1-.6-.4-.6-.8s.1-.7.4-.9l2-1.2.1-2.3c0-.4.2-.6.6-.8.3-.1.7-.1 1 .1l1.8 1.5 2.2-.6c.3-.1.7 0 .9.3s.3.6.2 1l-.9 2.2 1.3 1.9c.2.3.2.7 0 1s-.5.5-.9.4l-2.4-.2-1.4 1.8c-.1.3-.4.4-.7.4zM9.5 32l2.1.8c.3.1.5.3.6.6l.5 2.2 1.4-1.7c.2-.2.5-.4.8-.3l2.3.2-1.3-1.9c-.2-.2-.2-.6-.1-.9l.9-2-2.1.6c-.3.1-.6 0-.8-.2L12 27.9l-.1 2.2c0 .3-.2.6-.4.7l-2 1.2zm7.7 1.7zm77 78.4H94c-.3-.1-.6-.3-.7-.7l-.6-2.3-2.2-.8c-.3-.1-.6-.4-.6-.8s.1-.7.4-.9l2-1.2.1-2.3c0-.3.2-.7.6-.8s.7-.1 1 .2l1.8 1.6 2.2-.6c.3-.1.7 0 .9.3.2.3.3.6.2.9l-.9 2.2 1.3 1.9c.2.3.2.7 0 1s-.5.5-.9.4l-2.4-.2-1.4 1.8c-.1.2-.3.3-.6.3zm-3.1-4.7 2.1.8c.3.1.5.3.6.6l.5 2.2 1.4-1.7c.2-.2.5-.4.8-.3l2.3.2-1.3-1.9c-.2-.2-.2-.6-.1-.8l.8-2.1-2.2.6c-.3.1-.6 0-.8-.2l-1.7-1.4-.1 2.2c0 .3-.2.6-.4.7l-1.9 1.1zm7.7 1.8zm-47.9 23.9h-.2c-.3-.1-.6-.3-.7-.7l-.5-2.3-2.2-.8c-.3-.1-.5-.4-.6-.8s.1-.7.4-.9l2-1.2.1-2.3c0-.3.2-.7.5-.8s.7-.1 1 .2l1.8 1.6 2.2-.6c.3-.1.7 0 .9.3s.3.6.2.9l-.9 2.2 1.3 1.9c.2.3.2.7 0 1s-.5.5-.9.4l-2.4-.2-1.4 1.8c-.1.1-.3.3-.6.3zm-3.1-4.7 2.1.8c.3.1.5.4.6.6l.5 2.2 1.4-1.7c.2-.2.5-.4.8-.3l2.3.2-1.3-1.9c-.2-.2-.2-.6-.1-.8l.8-2.1-2.1.6c-.3.1-.6 0-.8-.2l-1.7-1.4-.1 2.2c0 .3-.2.6-.4.7l-2 1.1zm7.7 1.7zm114.3-16.5h-.1c-.2-.1-.4-.2-.4-.4l-.4-1.5-1.4-.5c-.2-.1-.4-.3-.4-.5s.1-.4.3-.6l1.3-.8.1-1.5c0-.2.1-.4.4-.5.2-.1.4-.1.6.1l1.1 1 1.4-.4c.2-.1.4 0 .6.2s.2.4.1.6l-.6 1.4.8 1.2c.1.2.1.4 0 .6s-.3.3-.6.3l-1.5-.1-.9 1.2c0 .1-.2.2-.4.2zm-1.9-3 1.3.5c.2.1.3.2.4.4l.3 1.4.9-1.1c.1-.2.3-.2.5-.2l1.4.1-.8-1.2c-.1-.2-.1-.4-.1-.5l.5-1.3-1.4.4c-.2.1-.4 0-.5-.1l-1.1-.9-.1 1.4c0 .2-.1.4-.3.5l-1 .6zm4.9 1.1zm17.7 77.9h-.1c-.2-.1-.4-.2-.4-.4l-.4-1.5-1.4-.5c-.2-.1-.4-.3-.4-.5s.1-.4.3-.6l1.3-.8.1-1.5c0-.2.1-.4.4-.5.2-.1.4-.1.6.1l1.1 1 1.4-.4c.2-.1.4 0 .6.2s.2.4.1.6l-.6 1.4.8 1.2c.1.2.1.4 0 .6s-.3.3-.6.3l-1.5-.1-.9 1.2c-.1.1-.3.2-.4.2zm-2-3 1.3.5c.2.1.3.2.4.4l.3 1.4.9-1.1c.1-.1.3-.2.5-.2l1.4.1-.8-1.2c-.1-.2-.1-.4-.1-.5l.5-1.3-1.4.4c-.2.1-.4 0-.5-.1l-1-1-.1 1.4c0 .2-.1.4-.3.5l-1.1.7zm4.9 1.1zM75.7 98c-.3-.1-.5-.2-.5-.4l-.3-1.5-1.4-.5c-.2-.1-.3-.3-.4-.5s.1-.4.3-.6l1.3-.8.1-1.5c0-.2.2-.4.3-.5.2-.1.4-.1.6.1l1.2 1 1.4-.4c.2-.1.4 0 .6.2s.2.4.1.6l-.6 1.4.8 1.2c.1.2.1.4 0 .6s-.3.3-.6.3H77l-.9 1.2c-.1.1-.3.1-.4.1zm-2-2.9 1.3.5c.2.1.3.2.4.4l.3 1.4.9-1.1c.1-.2.3-.2.5-.2l1.4.1-.8-1.2c-.1-.2-.1-.4-.1-.5l.5-1.3-1.4.4c-.2.1-.4 0-.5-.1l-1.1-.9L75 94c0 .2-.1.4-.3.5l-1 .6zm4.9 1.1zm44.7 63.5c-.3-.1-.5-.2-.5-.4l-.3-1.5-1.4-.5c-.2-.1-.3-.3-.4-.5 0-.2.1-.4.3-.6l1.3-.8.1-1.5c0-.2.2-.4.3-.5.2-.1.4-.1.6.1l1.2 1 1.4-.4c.2-.1.4 0 .6.2s.2.4.1.6l-.6 1.4.8 1.2c.1.2.1.4 0 .6s-.3.3-.6.3l-1.5-.1-.9 1.2c-.2.1-.4.2-.5.2zm-2-3 1.3.5c.2.1.3.2.4.4l.3 1.4.9-1.1c.1-.1.3-.2.5-.2l1.4.1-.8-1.2c-.1-.2-.1-.4-.1-.5l.5-1.3-1.4.4c-.2.1-.4 0-.5-.1l-1.1-.9-.1 1.4c0 .2-.1.4-.3.5l-1 .6zm4.9 1.1zm51.7-74-.1-.1c-.2-.2-.2-.4-.2-.6l.4-1.4-.9-1.1c-.1-.2-.2-.4-.1-.6.1-.2.3-.3.5-.3h1.5l.8-1.2c.1-.2.3-.3.6-.2s.4.2.5.4l.5 1.4 1.4.4c.2.1.4.2.4.4s0 .4-.2.6l-1.2.9.1 1.5c0 .2-.1.4-.3.5s-.4.1-.6 0l-1.2-.9-1.4.5c-.2-.1-.4-.1-.5-.2zm-.2-3.6.9 1.1c.1.2.2.3.1.5l-.4 1.3 1.3-.5c.2-.1.4 0 .5.1l1.2.8-.1-1.4c0-.2.1-.4.2-.5l1.1-.8-1.4-.4c-.2-.1-.3-.2-.4-.4l-.4-1.3-.8 1.2c-.1.2-.3.3-.5.3h-1.3zm3.6 3.5zM16.5 20s-.1 0-.1-.1c-.2-.1-.2-.4-.2-.6l.5-1.5-.9-1.1c-.1-.2-.2-.4-.1-.6.1-.2.3-.3.5-.3h1.5l.8-1.2c.1-.2.3-.3.6-.2s.4.2.5.4l.5 1.4 1.4.4c.2.1.4.2.4.5 0 .2 0 .4-.2.6l-1.2.9.1 1.5c0 .2-.1.4-.3.5-.2.1-.4.1-.6 0l-1.2-.9-1.5.3c-.2.1-.4 0-.5 0zm-.2-3.6.9 1.1c.1.1.2.4.1.5l-.4 1.3 1.3-.5c.2-.1.4 0 .5.1l1.2.8-.1-1.4c0-.2.1-.4.2-.5l1.1-.8-1.4-.4c-.2 0-.3-.2-.4-.4l-.3-1.3-.8 1.2c-.1.2-.3.3-.5.3h-1.4zm3.6 3.4zm-8.1 160.5-.1-.1c-.2-.1-.2-.4-.2-.6l.4-1.4-.9-1.1c-.1-.2-.2-.4-.1-.6.1-.2.3-.3.5-.3h1.5l.8-1.2c.1-.2.3-.3.6-.2s.4.2.5.4l.5 1.4 1.4.4c.2.1.4.2.4.4s0 .4-.2.6l-1.2.9.1 1.5c0 .2-.1.4-.3.5s-.4.1-.6 0l-1.2-.9-1.4.5c-.1-.1-.3-.1-.5-.2zm-.1-3.5.9 1.1c.1.1.2.4.1.5l-.4 1.3 1.3-.5c.2-.1.4 0 .5.1l1.2.8-.1-1.4c0-.2.1-.4.2-.5l1.1-.8-1.4-.4c-.2-.1-.3-.2-.4-.4l-.4-1.3-.8 1.2c-.1.2-.3.3-.5.3h-1.3zm3.6 3.4zm5.7-23.8-.1-.1c-.2-.1-.2-.4-.2-.6l.5-1.4-.9-1.1c-.1-.2-.2-.4-.1-.6.1-.2.3-.3.5-.3h1.5l.8-1.3c.1-.2.3-.3.6-.2s.4.2.5.4l.5 1.4 1.4.4c.2.1.4.2.4.4s0 .4-.2.6l-1.2.9.1 1.5c0 .2-.1.4-.3.5-.2.1-.4.1-.6 0L23 156l-1.4.5c-.3 0-.5 0-.6-.1zm-.2-3.5.9 1.1c.1.1.2.4.1.5l-.4 1.3 1.3-.5c.2-.1.4 0 .5.1l1.2.8-.1-1.4c0-.2.1-.4.2-.5l1.1-.8-1.4-.4c-.2-.1-.3-.2-.4-.4l-.5-1.3-.8 1.2c-.1.2-.3.3-.5.3h-1.2zm3.7 3.4zm94.7-67c-.1-.1-.2-.1-.2-.2-.3-.4-.4-1-.1-1.4l1.7-3.2-1.7-3.1c-.2-.5-.2-1 .1-1.4s.8-.6 1.3-.6l3.5.6 2.4-2.5c.4-.4.9-.5 1.4-.3s.9.6.9 1.1l.5 3.6 3.2 1.5c.5.2.8.7.8 1.2s-.3 1-.8 1.2l-3.2 1.6-.4 3.5c-.1.5-.4.9-.9 1.1-.5.2-1.1 0-1.4-.3l-2.5-2.6-3.4.7c-.4-.1-.8-.2-1.2-.5zm1.2-8.4 1.6 2.9c.2.4.2.9 0 1.3l-1.5 3 3.3-.6c.4-.1.9.1 1.2.4l2.4 2.4.4-3.4c.1-.4.3-.8.8-1l3-1.5-3-1.5c-.4-.2-.7-.6-.8-1l-.5-3.3L125 81c-.3.3-.8.5-1.2.4l-3.4-.5zm7 9.6zm-1.1 91.4c-.1-.1-.2-.1-.2-.2-.3-.4-.4-1-.1-1.4l1.7-3.2-1.7-3.1c-.2-.5-.2-1 .1-1.4s.8-.6 1.3-.6l3.5.6 2.4-2.5c.4-.4.9-.5 1.4-.4.5.2.9.6.9 1.1l.5 3.6 3.2 1.5c.5.2.8.7.8 1.2s-.3 1-.8 1.2l-3.2 1.6-.4 3.5c-.1.5-.4.9-.9 1.1-.5.2-1.1 0-1.4-.3l-2.5-2.6-3.4.7c-.4 0-.8-.1-1.2-.4zm1.2-8.4 1.6 2.9c.2.4.2.9 0 1.3l-1.5 3 3.3-.6c.4-.1.9.1 1.2.4l2.4 2.4.4-3.4c.1-.4.3-.8.8-1l3-1.5-3-1.5c-.4-.2-.7-.6-.8-1l-.5-3.3-2.3 2.4c-.3.3-.8.5-1.2.4l-3.4-.5zm7 9.6zm43.7-147.8c-.1 0-.2-.1-.3-.1-.5-.2-.8-.7-.7-1.3l.1-3.6-2.9-2c-.4-.3-.6-.8-.5-1.4.1-.5.5-.9 1-1.1l3.4-1 1-3.3c.2-.5.6-.9 1.1-.9.5-.1 1 .1 1.3.6l2 3h3.5c.5 0 1 .3 1.2.8s.2 1-.1 1.5l-2.2 2.8 1.1 3.3c.2.5 0 1-.4 1.4s-.9.5-1.4.3l-3.4-1.2-2.8 2.1c-.2.1-.6.2-1 .1zm-2.7-8 2.7 2c.4.3.6.7.6 1.1l-.1 3.3 2.7-2c.4-.3.8-.3 1.3-.2l3.2 1.2-1.1-3.2c-.1-.4-.1-.9.2-1.3l2-2.6h-3.3c-.4 0-.9-.2-1.1-.6l-1.9-2.8-1 3.2c-.1.4-.5.8-.9.9l-3.3 1zm10.5 5.5zM24.5 144.6c-.1 0-.2-.1-.3-.1-.5-.2-.8-.7-.7-1.3l.1-3.6-2.9-2c-.4-.3-.6-.8-.5-1.4.1-.5.5-.9 1-1.1l3.4-1 1-3.3c.2-.5.6-.9 1.1-.9.5-.1 1 .1 1.3.6l2 3h3.5c.5 0 1 .3 1.2.8s.2 1-.1 1.4l-2.2 2.8 1.1 3.3c.2.5 0 1-.3 1.4-.4.4-.9.5-1.4.3l-3.4-1.2-2.8 2.1c-.2.2-.7.3-1.1.2zm-2.6-8.1 2.7 2c.4.3.6.7.6 1.1L25 143l2.7-1.9c.4-.3.8-.3 1.3-.2l3.2 1.1-1.1-3.2c-.1-.4-.1-.9.2-1.3l2-2.6H30c-.5 0-.9-.2-1.1-.6l-1.9-2.8-1.1 3.2c-.1.4-.5.8-.9.9l-3.1.9zm10.5 5.6z" fill="#ffe1a6" stroke-width="none" opacity="0.73"/>
      <path id="SvgjsPath15556" d="M157.3 17.6h.1c.7-.1.7-1 0-1h-.1c-.7-.1-.7 1 0 1zm10.8-5.1c.3 0 .3-.5 0-.5-.4 0-.4.5 0 .5zm1.6 6.2c.2 0 .2-.3 0-.3-.2-.1-.2.3 0 .3zm12.9-7.4c0-.1 0-.1-.1-.2-.1-.2-.3-.2-.3 0 0 .1-.1.1-.1.2 0 .3.6.3.5 0zm.3-8c.2 0 .3 0 .4-.1.2-.1.2-.4 0-.6-.1-.1-.2-.1-.4-.1-.5.1-.5.8 0 .8zM191 17c0-.1 0-.1-.1-.2-.1-.2-.3-.2-.4 0 0 .1-.1.1-.1.2.1.4.7.4.6 0zm3.8-3.1c.3 0 .3-.4 0-.4-.2 0-.2.4 0 .4zm-80.5.7c.5 0 .5-.7 0-.7s-.5.7 0 .7zm-5.5 7.2c.3 0 .3-.5 0-.5-.3.1-.3.5 0 .5zm1.9-10.5c.3 0 .3-.5 0-.5s-.3.5 0 .5zm9.6 6.3c.1 0 .1-.1 0-.1s-.1.1 0 .1zm5.5-6.5c.3 0 .3-.4 0-.4s-.3.4 0 .4zm-.3-7.2c.3 0 .3-.4 0-.4s-.2.4 0 .4zm11.3 3.3c.3 0 .3-.4 0-.4s-.3.4 0 .4zM94.2 35.3c-.2 0-.3 0-.5.2-.1.1-.1.3 0 .4.1.2.3.2.5.2.5-.1.5-.7 0-.8zm2.9 14.4c.2 0 .2-.3 0-.3s-.2.3 0 .3zm5.5-1.8c.3 0 .3-.4 0-.4-.3-.1-.3.4 0 .4zM12.5 56c-.2 0-.2 0-.4.1s-.2.4 0 .5c.2 0 .2.1.4.1.3-.2.3-.8 0-.7zm-4-5.6c.3 0 .3-.5 0-.5s-.3.5 0 .5zm2.5-7c.1 0 .1-.1 0 0 0-.1 0 0 0 0zm22.5-25.7c0-.2 0-.2-.1-.4-.1-.3-.4-.3-.4-.1s-.1.2-.1.4c0 .4.6.4.6.1zm-2.1-7.1c.1 0 .1-.2 0-.2s-.1.2 0 .2zm-2.5.1c.2 0 .2-.4 0-.4s-.2.4 0 .4zm.7-5.7c.3 0 .3-.4 0-.4s-.3.4 0 .4zm5.7 5.4c.3 0 .3-.4 0-.4-.3-.1-.3.4 0 .4zm17.9-5.7c.3 0 .3-.5 0-.5s-.3.5 0 .5zM4.6 15.1c.3 0 .3-.5 0-.5s-.4.5 0 .5zm56.1 88.7c.3 0 .4 0 .6-.2v-.2c-.2-.2-.3-.3-.6-.2-.5-.2-.5.6 0 .6zm-38.9 18.1c.4 0 .4-.6 0-.6s-.4.6 0 .6zm3.9-6.6c.2 0 .2-.3 0-.3s-.2.3 0 .3zm-15.1-12.7c0-.2 0-.2-.1-.4-.1-.1-.3-.1-.4 0-.1.2-.1.2-.1.4-.1.6.7.6.6 0zm7.9-16.4c0-.2 0-.3-.1-.4-.1-.3-.4-.3-.5 0-.1.2-.1.2-.1.4 0 .5.8.5.7 0zm-1.6-10.5c-.1-.1-.3-.2-.4-.3-.1-.1-.3.1-.2.2.1.1.2.3.3.4.2.3.5-.1.3-.3zm-4.1 6.4c.2 0 .2-.4 0-.4s-.2.4 0 .4zm3.6-8.6c.2 0 .2-.3 0-.3s-.2.3 0 .3zm-4.6-2.1c.1 0 .1-.2 0-.2-.2-.1-.2.2 0 .2zm3.2-6.8c.1 0 .1-.2 0-.2-.2-.1-.2.2 0 .2zm164.5 35.6c.1-.1.2-.1.3-.2.2-.1.3-.3.2-.5v-.1c0-.1-.1-.2-.2-.2h-.1c-.2 0-.4 0-.5.2-.1.1-.1.2-.2.3-.3.2.2.7.5.5zm3-5c.4 0 .4-.7 0-.7s-.4.7 0 .7zm2.2 3c.2 0 .2-.3 0-.3s-.2.3 0 .3zm3.9-5.8c.1 0 .1-.2 0-.2s-.2.2 0 .2zm6.1-8.1c.1 0 .2-.1.3-.1s.1-.2 0-.2-.2-.1-.3-.1c-.3-.2-.3.6 0 .4zm-51.5-4.4c.5 0 .5-.8 0-.8s-.5.8 0 .8zm-4 7.5c.1-.1.2-.3.3-.4s-.1-.3-.2-.2c-.1.1-.3.2-.4.3-.5.2 0 .7.3.3zm4.7-3.5c.2 0 .2-.3 0-.3s-.1.3 0 .3zm4-4.3c.2 0 .2-.3 0-.3-.3 0-.3.3 0 .3zm-39.7 6.7c.2 0 .3 0 .5-.1s.2-.4 0-.5-.3-.1-.5-.1c-.5-.1-.5.6 0 .7zm-6.4 8.1c.4 0 .4-.7 0-.7s-.5.7 0 .7zm-5-3.6c.3 0 .3-.5 0-.5s-.3.5 0 .5zm6.8-6.6c.2 0 .2-.3 0-.3-.2.1-.2.3 0 .3zm-1.8 5.4c.2 0 .2-.2 0-.2s-.2.2 0 .2zm-11.1 10c.2 0 .2-.3 0-.3s-.2.3 0 .3zm17.5-1c.3 0 .3-.4 0-.4s-.3.4 0 .4zM31.9 193c.1 0 .2-.1.3-.1.1-.1.1-.3 0-.4-.1 0-.2-.1-.3-.1-.6-.3-.6.9 0 .6zm1.3-8.8c.2 0 .3 0 .5-.1s.2-.5 0-.6-.3-.1-.5-.1c-.5 0-.5.7 0 .8zm1.1 4.8c.2 0 .2 0 .4-.1s.2-.3 0-.3-.2-.1-.4-.1c-.4 0-.4.6 0 .5zm3.7-4.5c0-.1 0-.3-.1-.4 0-.1-.3-.1-.3 0s0 .2-.1.4c.1.3.6.3.5 0zm.2-5.5c.2 0 .2-.4 0-.4-.3 0-.3.4 0 .4zm3.9 6.1c.3 0 .3-.5 0-.5s-.3.5 0 .5zm-9.3-20.4c.3 0 .3-.4 0-.4-.2 0-.2.4 0 .4zm-21.1 22c-.2-.2-.3-.4-.6-.4-.1 0-.3.1-.3.3 0 .3.1.4.4.6.3.4.8-.1.5-.5zM25 165.8c.3 0 .3-.5 0-.5s-.4.5 0 .5zm107.5-37.9c-.1-.1-.1-.2-.2-.4s-.3-.2-.4 0c-.1.1-.1.2-.2.4-.1.7 1 .7.8 0zm-14.7 20.8c.3 0 .3-.5 0-.5s-.3.5 0 .5zm11.8 5.5c.6 0 .6-.9 0-.9s-.5.9 0 .9zm0 8.4c.4 0 .4-.6 0-.6-.3.1-.3.6 0 .6zm-5 6c.2 0 .2-.3 0-.3s-.2.3 0 .3zm-6.8 1.8c.3 0 .3-.4 0-.4s-.2.4 0 .4zm24.3 13.4c.2 0 .3 0 .4-.1.3-.1.3-.5 0-.6-.2-.1-.2-.1-.4-.1-.5 0-.5.8 0 .8zm7.9 10.3c.4 0 .4-.7 0-.7s-.4.7 0 .7zm7.9-8.2c.4 0 .4-.6 0-.6s-.4.6 0 .6zm4.2 7c.3 0 .3-.4 0-.4-.2 0-.2.4 0 .4zm10.1-2.3s0-.1 0 0c-.1-.1-.1 0 0 0zm-16.8-3.1c.2 0 .2-.3 0-.3s-.2.3 0 .3zm3.2-4.3c.2 0 .2-.3 0-.3s-.2.3 0 .3zm-47.6 3.6.3-.9c.1-.3-.3-.5-.5-.3s-.4.4-.5.7c-.2.6.5 1 .7.5zm62.1-57.4c.1-.2.2-.3.3-.5s-.1-.5-.4-.4c-.2.1-.3.2-.5.3-.3.4.3 1 .6.6zm-4.9 12.1c0-.2-.1-.2-.1-.4-.1-.1-.3-.1-.4 0-.1.2-.1.2-.1.4-.2.6.7.6.6 0zm4.3-6.8c.3 0 .3-.4 0-.4-.3-.1-.3.4 0 .4zm5-3.3c.2 0 .2-.3 0-.3s-.2.3 0 .3zm2.2-4.5c.4 0 .4-.6 0-.6s-.4.6 0 .6z" fill="#ffd86c" stroke-width="none" opacity="1"/>
    </g>
    <g id="svga-group-humanwrap-move" transform="matrix(1,0,0,1,0,0)">
      <g id="svga-group-humanwrap">
        <g id="svga-group-hair-back-move" transform="matrix(0.9986295346632303,-0.05233595798588131,0.05233595798588131,0.9986295346632303,-7.451667374275814,5.418608619052037)">
          <g id="svga-group-hair-back" transform="matrix(1.0400004000000003,0,0,1.0002004000000002,0,0)"/>
        </g>
        <g id="svga-group-humanbody-back">
          <path id="SvgjsPath14908" d="M77.6 118.3c0 19.3 3.4 44.1-10 51.9-13.4 7.9-31.9 11.3-37.8 22s-4.4 25.3-4.4 25.3h149.3s.7-18.9-5.1-26.4c-8.1-10.4-27.8-15.5-37.7-20.9s-13.4-25.1-13.4-52.4l-40.9.5z" fill="#ffffff" stroke-width="none" opacity="1"/>
        </g>
        <g id="svga-group-chinshadow-single"/>
        <g id="svga-group-humanbody-front">
          <path id="SvgjsPath14909" d="M175.8 218.7H24.4l-.1-1c-.1-.6-1.5-15.1 4.5-26 4.1-7.4 13.5-11.3 23.5-15.5 5-2.1 10.2-4.3 14.8-6.9 10.6-6.2 10.1-23.9 9.6-41-.1-3.5-.2-6.8-.2-10v-1.1l43.2-.4v1.1c0 29.9 4.2 46.7 12.8 51.4 2.9 1.6 6.7 3.2 10.8 4.9 10 4.1 21.3 8.8 27.2 16.3 6.1 7.7 5.4 26.4 5.4 27.1l-.1 1.1zm-149.3-2.2h147.1c0-4.1-.2-18.5-4.9-24.6-5.5-7-16.6-11.6-26.3-15.6-4.1-1.7-8-3.3-11-5-5.1-2.8-8.7-8.9-10.9-18.7-2-8.4-2.9-19.4-3-33.5l-38.6.4c0 2.8.1 5.7.2 8.8.5 17.8 1 36.1-10.7 43-4.7 2.7-9.9 4.9-15 7.1-9.6 4-18.7 7.8-22.4 14.5-5 8.6-4.7 20.1-4.5 23.6z" fill="#000000" stroke-width="none" opacity="1"/>
          <path id="SvgjsPath14910" d="M93.9 153.8c-.5 1.8-.4 3.4.5 5.2.8 1.6 2.1 2.7 3.9 2.9.4 0 .7-.5.5-.8-1.6-2.2-3.5-4.2-3.7-7.1 0-.7-1-.9-1.2-.2z" fill="#000000" stroke-width="none" opacity="1"/>
          <path id="SvgjsPath14911" d="M112.5 187.5c8.8.5 18.1-.7 26.6-2.9.7-.2.6-1.4-.2-1.3-8.8 1.1-17.7 2-26.5 3.3-.5.1-.3.9.1.9z" fill="#000000" stroke-width="none" opacity="1"/>
          <path id="SvgjsPath14912" d="M63.1 182.5c3.8.9 7.6 1.9 11.5 2.8 3.6.8 7.4 2 11.1 2.1.7 0 .8-.9.2-1.2-3.5-1.4-7.5-1.7-11.2-2.5-3.8-.7-7.5-1.3-11.3-2-.5 0-.7.7-.3.8z" fill="#000000" stroke-width="none" opacity="1"/>
        </g>
        <g id="svga-group-clothes-single">
          <path id="SvgjsPath14795" d="M51.4 218s1-21.2-3-40.2l14.1-6.3s3.3 21.9 15.1 30.3 43.4 7.6 50.9-1.3c7.4-8.9 11.1-27.9 11.1-27.9l15.4 6.3s-2.1 12-2.8 22.9-.2 16.2-.2 16.2H51.4z" fill="#ffffff" stroke-width="none" opacity="1"/>
          <path id="SvgjsPath14796" d="m155.4 177.9-15.4-6.3c-.3-.1-.6-.1-.9.1-.3.1-.4.4-.5.7 0 .2-3.7 18.8-10.9 27.4-7.2 8.6-38.2 9.3-49.5 1.1-11.3-8.1-14.6-29.4-14.7-29.7 0-.3-.2-.6-.5-.7-.3-.1-.6-.2-.9 0L48 176.8c-.4.2-.7.7-.6 1.1 3.9 18.6 3 39.8 3 40 0 .3.1.5.3.7.2.2.5.3.7.3h6.2c.1.1.2.1.3 0H152c.3 0 .6-.1.7-.3s.3-.5.3-.8c0-.1-.5-5.4.2-16.1.6-10.7 2.8-22.6 2.8-22.8.1-.3-.2-.8-.6-1zm-102.6-1c-1 1.3-2 2.7-2.7 4.1-.2-.9-.3-1.8-.5-2.7l3.2-1.4zm98.4 24.8c-.5 8.2-.4 13.2-.2 15.3H67c.9-1 1.9-2 2.8-3.1.1-.2-.1-.4-.2-.2-1.1 1.1-2.1 2.2-3.2 3.3h-6.5c1-1.1 2-2.3 3-3.5.1-.1-.1-.3-.2-.2-1.2 1.1-2.3 2.4-3.3 3.7h-5.5c2.2-2.6 4.5-5.2 6.5-7.9.1-.2-.2-.4-.3-.2-2.4 2.6-4.7 5.4-6.9 8.1h-.6c.1-2.1.2-7.3-.1-13.9 3-3.9 6.1-7.7 8.9-11.7.1-.1-.1-.3-.2-.2-3 3.6-5.9 7.5-8.7 11.3-.1-1.6-.2-3.3-.3-5.1 3.6-4.7 7.1-9.6 10-14.8.1-.1-.1-.2-.2-.1-3.2 4.8-6.4 9.6-9.8 14.3-.1-1.3-.2-2.7-.3-4 2.6-4.3 5.4-8.4 8.5-12.4.1-.2-.1-.4-.3-.2-3.2 3.6-5.9 7.7-8.2 11.9l-.6-5.1c.1 0 .2.1.2 0 .2-.2.4-.5.6-.7.1-.1 0-.3-.2-.2 1.3-.9 2.5-3.7 3.5-5.2 1.4-2 2.8-3.9 4.2-5.8.2-.2-.2-.4-.3-.2-2.9 3.8-5.7 7.6-8.2 11.7-.2-1.4-.4-2.9-.7-4.4 1.2-2 2.3-3.9 3.7-5.8l7.8-3.5c.9 4.9 4.8 22.2 15.2 29.7 12.2 8.8 44.4 7.9 52.2-1.5 6.5-7.8 10.1-22.8 11.1-27.1l13.6 5.6c-.6 2.8-2.3 12.9-2.8 22.1zM58 202.8c-1.9 2-3.6 4.2-5.4 6.4-.2.2.1.5.3.3 1.8-2.1 3.7-4.2 5.3-6.5.1-.2-.1-.3-.2-.2z" fill="#000000" stroke-width="none" opacity="1"/>
        </g>
        <g id="svga-group-head" transform="matrix(0.9986295346632303,-0.05233595798588131,0.05233595798588131,0.9986295346632303,-7.451667374275814,5.418608619052037)">
          <g id="svga-group-ears-left-move" transform="matrix(1,0,0,1,-3,0)">
            <g id="svga-group-ears-left">
              <path id="SvgjsPath16892" d="M58.9 77.8s-2.5-2.4-5.4-3.5c-2.9-1.1-6.1.7-7.1 3.7-1 2.9 1.3 15.1 5 19.5s6.2 4.8 8.7 2.5c2.6-2.4 7-10.8-1.2-22.2z" fill="#ffffff" stroke-width="none" opacity="1"/>
              <path id="SvgjsPath16893" d="M56.8 102.3c-1.9-.1-3.8-1.5-6.1-4.2-3.9-4.7-6.3-17.1-5.2-20.5.6-1.8 1.9-3.3 3.6-4.1 1.5-.7 3.2-.8 4.8-.2 3.1 1.2 5.6 3.6 5.7 3.7l.1.1c8.7 12.2 3.5 21.2 1.1 23.5-1.2 1.1-2.4 1.6-3.7 1.6-.1.1-.2.1-.3.1zm-3.6-27.1c-1.3-.5-2.5-.2-3.2.1-1.2.6-2.1 1.6-2.6 2.9-.8 2.5 1.3 14.3 4.9 18.5 1.9 2.3 3.4 3.4 4.7 3.5.8.1 1.6-.3 2.5-1.1 2.1-1.9 6.5-9.8-1.3-20.7-.4-.3-2.6-2.2-5-3.2z" fill="#000000" stroke-width="none" opacity="1"/>
              <path id="SvgjsPath16894" d="M50.2 77.4c3.3.6 5.4 6.1 6 9.8.1.1.1.2.2.3.4.6-.4 1.2-.8.6-.5-.8-1-1.6-1.8-1.9-1.4-.5-2.1 1.1-1.8 2.6.4 1.9 1.6 3 2.6 4.4.1.1 0 .3-.1.2-1.7-1-4.3-4.8-3.1-7.2.9-1.7 2.3-1.4 3.4-.4-.8-2.1-1.4-4.3-3-5.9-.5-.5-1.5-1.4-2.2-1.3-1.3.2-1.3 2.1-1.3 3.4-.1 1.7.1 3.4.4 5 0 .2-.2.2-.3.1-.6-2.4-2-10.4 1.8-9.7z" fill="#000000" stroke-width="none" opacity="1"/>
            </g>
          </g>
          <g id="svga-group-ears-right-move" transform="matrix(1,0,0,1,3,0)">
            <g id="svga-group-ears-right">
              <path id="SvgjsPath16895" d="M141.1 77.8s2.5-2.4 5.4-3.5c2.9-1.1 6.1.7 7.1 3.7 1 2.9-1.3 15.1-5 19.5s-6.2 4.8-8.7 2.5c-2.6-2.4-7-10.8 1.2-22.2z" fill="#ffffff" stroke-width="none" opacity="1"/>
              <path id="SvgjsPath16896" d="M142.9 102.3c-1.3 0-2.5-.5-3.7-1.6-2.5-2.2-7.6-11.3 1.1-23.5l.1-.1c.1-.1 2.7-2.5 5.7-3.7 1.5-.6 3.2-.5 4.8.2 1.7.8 3 2.3 3.6 4.1 1.1 3.3-1.3 15.8-5.2 20.5-2.3 2.7-4.2 4.1-6.1 4.2-.1-.1-.2-.1-.3-.1zm-1.1-23.9c-7.8 10.9-3.4 18.8-1.3 20.7.9.8 1.7 1.2 2.5 1.1 1.3-.1 2.8-1.2 4.7-3.5 3.5-4.2 5.7-16.1 4.9-18.5-.4-1.3-1.4-2.4-2.6-2.9-.7-.3-1.9-.6-3.2-.1-2.4 1-4.6 2.9-5 3.2z" fill="#000000" stroke-width="none" opacity="1"/>
              <path id="SvgjsPath16897" d="M149.8 77.4c-3.3.6-5.4 6.1-6 9.8-.1.1-.1.2-.2.3-.4.6.4 1.2.8.6.5-.8 1-1.6 1.8-1.9 1.4-.5 2.1 1.1 1.8 2.6-.4 1.9-1.6 3-2.6 4.4-.1.1 0 .3.1.2 1.7-1 4.3-4.8 3.1-7.2-.9-1.7-2.3-1.4-3.4-.4.8-2.1 1.4-4.3 3-5.9.5-.5 1.5-1.4 2.2-1.3 1.3.2 1.3 2.1 1.3 3.4.1 1.7-.1 3.4-.4 5 0 .2.2.2.3.1.6-2.4 2-10.4-1.8-9.7z" fill="#000000" stroke-width="none" opacity="1"/>
            </g>
          </g>
          <g id="svga-group-faceshape-wrap" transform="matrix(1.0400004000000003,0,0,1.0002004000000002,-4.01584978944399,-0.01634261831819117)">
            <g id="svga-group-faceshape-single">
              <path id="SvgjsPath14891" d="M150.5 102.8c-2.3-12.1-6.2-18.4-6.7-34.9-.1-3.3-.3-8.9-1.4-14.2-2.3-11.4-15.1-28.8-42.4-28.8S63.6 38.2 59.6 48.1c-2.5 6.2-3.2 15.2-3.4 19.7 0 0-1.2 16.8-2.4 21.3-1.1 4.5-7.6 17.8-1.9 29.5 5.7 11.7 18.5 18.5 31.7 15.1 0 0 14.4 9.8 29.5.8 0 0 10.6 5.3 23.4-1.1 12.9-6.5 16.3-18.6 14-30.6z" fill="#ffffff" stroke-width="none" opacity="1"/>
              <path id="SvgjsPath14892" d="M99.4 139.4c-2.6 0-5-.4-7-.8-4.6-1.1-7.9-3-9-3.7-13.2 3.1-26.5-3.3-32.5-15.8-4.9-10.1-1.1-21.3.9-27.3.4-1.2.7-2.2.9-2.9 1.1-4.3 2.3-20.4 2.3-21.1.3-4.8 1-13.8 3.5-20.1 6.6-16.2 20.1-24 41.5-24 12.3 0 23.2 3.6 31.3 10.4 6.3 5.2 10.9 12.5 12.2 19.3 1.1 5.5 1.3 11.4 1.4 14.4.3 10.7 2.1 16.9 3.9 23.5 1 3.4 2 7 2.8 11.2 2.7 14.2-2.6 25.8-14.6 31.8-11.6 5.8-21.4 2.4-23.9 1.4-4.8 2.8-9.5 3.7-13.7 3.7zm-15.5-6.9.4.3c.1.1 14 9.3 28.2.7l.5-.3.6.3c.1 0 10.3 4.9 22.4-1.1 15-7.5 14.8-21.6 13.4-29.4-.8-4.1-1.8-7.6-2.7-11-1.8-6.5-3.7-13.1-4-24.1 0-3-.3-8.7-1.4-14-1.3-6.4-5.6-13.1-11.5-18-7.7-6.5-18-9.9-29.9-9.9-20.3 0-33.2 7.4-39.4 22.6-2.4 6-3.1 14.7-3.3 19.3-.1.7-1.2 16.9-2.4 21.5-.2.8-.6 1.9-1 3.1-1.9 5.7-5.5 16.3-1 25.6 5.7 11.7 18.2 17.7 30.4 14.5l.7-.1z" fill="#000000" stroke-width="none" opacity="1"/>
            </g>
          </g>
          <g id="svga-group-mouth-single-move" transform="matrix(1,0,0,1,0,0)">
            <g id="svga-group-mouth-single" transform="matrix(1.2000008000000006,0,0,1.2000008000000006,-20.040168813919138,-24.267786584918298)">
              <path id="SvgjsPath15072" d="M 117.11 115.24 C 116.77 115.06 116.51 114.82 116.33 114.48 C 115.98 113.85 115.01 114.41 115.36 115.05 C 115.41 115.14 115.48 115.21 115.54 115.29 C 115.53 115.29 115.52 115.29 115.51 115.3 C 113.217 116.379 110.822 117.227 108.36 117.83 C 108.275 117.806 108.186 117.803 108.1 117.82 C 105.75 118.28 103.44 117.99 101.07 117.96 C 100.33 117.95 99.49 117.98 99.23 118.62 C 98.52 117.74 97.34 117.86 96.19 117.85 C 94.18 117.84 92.16 117.86 90.15 117.84 L 90.12 117.84 C 88.28 117.39 86.48 116.8 84.71 116.08 L 84.68 116.05 C 84.71 115.88 84.68 115.7 84.54 115.56 C 84.34 115.36 83.94 115.33 83.75 115.56 C 83.45 115.91 83.16 116.26 82.86 116.61 C 82.66 116.84 82.63 117.18 82.86 117.4 C 83.06 117.6 83.46 117.63 83.65 117.4 C 83.77 117.26 83.89 117.12 84 116.98 C 84.02 116.99 84.03 117.01 84.05 117.02 L 84.06 117.02 C 86.91 119.87 89.69 122.85 92.68 125.56 C 95.11 127.77 97.98 127.84 101.14 127.73 C 104.54 127.6 107.1 126.35 109.53 123.97 C 112.01 121.54 114.32 118.88 116.46 116.14 C 116.49 116.15 116.5 116.18 116.53 116.19 C 116.8 116.33 117.14 116.26 117.3 115.99 C 117.46 115.76 117.38 115.38 117.11 115.24 L 117.11 115.24 Z M 86.63 117.99 C 95.66 121.04 105.54 120.69 114.36 117.02 C 113.02 118.63 111.61 120.18 110.18 121.7 C 103.76 124.21 96.92 124.15 90.45 121.72 C 90.43 121.71 90.42 121.73 90.4 121.72 C 89.14 120.48 87.89 119.24 86.63 117.99 L 86.63 117.99 Z M 109.09 122.83 L 109.03 122.71 C 109.12 122.68 109.22 122.65 109.31 122.61 L 109.09 122.83 Z M 108.59 123.32 C 108.52 123.19 108.44 123.05 108.37 122.92 C 108.41 122.91 108.45 122.9 108.49 122.88 L 108.49 122.9 C 108.55 123.01 108.6 123.13 108.66 123.24 C 108.64 123.27 108.62 123.3 108.59 123.32 L 108.59 123.32 Z M 107.7 124.09 C 107.51 123.82 107.32 123.54 107.13 123.27 C 107.2 123.25 107.28 123.24 107.35 123.22 L 107.74 124.06 C 107.72 124.07 107.71 124.08 107.7 124.09 L 107.7 124.09 Z M 107.05 124.57 L 106.02 123.54 L 106.54 123.42 C 106.78 123.76 107.01 124.1 107.25 124.44 C 107.18 124.48 107.12 124.52 107.05 124.57 L 107.05 124.57 Z M 106.22 125.11 C 105.91 124.63 105.6 124.15 105.3 123.67 L 105.48 123.64 C 105.47 123.71 105.49 123.79 105.56 123.86 L 106.6 124.9 C 106.47 124.97 106.34 125.04 106.22 125.11 L 106.22 125.11 Z M 105.5 125.51 C 105.2 124.94 104.89 124.37 104.59 123.79 C 104.63 123.78 104.67 123.78 104.71 123.77 L 104.71 123.78 L 105.73 125.37 C 105.65 125.43 105.58 125.48 105.5 125.51 L 105.5 125.51 Z M 104.96 125.75 C 104.52 125.17 104.15 124.55 103.83 123.91 C 103.89 123.9 103.94 123.89 104 123.89 L 104.99 125.75 C 104.97 125.74 104.96 125.74 104.96 125.75 Z M 104.05 126.09 C 103.57 125.44 103.16 124.75 102.8 124.02 C 102.94 124.01 103.08 124 103.22 123.98 C 103.56 124.68 103.96 125.34 104.43 125.97 C 104.31 126.01 104.18 126.05 104.05 126.09 Z M 103.37 126.28 C 102.8 125.55 102.23 124.82 101.67 124.1 C 101.85 124.09 102.03 124.09 102.2 124.07 C 102.55 124.84 103 125.56 103.49 126.25 C 103.45 126.25 103.41 126.27 103.37 126.28 Z M 102.54 126.44 C 102.1 125.86 101.72 125.26 101.38 124.62 L 102.77 126.4 C 102.69 126.42 102.62 126.43 102.54 126.44 L 102.54 126.44 Z M 101.69 126.57 C 101.09 125.79 100.55 124.98 100.07 124.12 L 100.51 124.12 C 100.51 124.14 100.5 124.16 100.51 124.19 C 100.9 125.02 101.39 125.79 101.93 126.54 L 101.69 126.57 L 101.69 126.57 Z M 100.72 126.62 C 100.18 125.82 99.71 124.99 99.31 124.11 C 99.36 124.11 99.4 124.12 99.45 124.12 C 99.46 124.15 99.44 124.17 99.46 124.2 C 99.93 125.04 100.46 125.84 101.03 126.61 C 100.93 126.61 100.83 126.62 100.72 126.62 Z M 99.95 126.64 C 99.42 125.78 98.89 124.92 98.36 124.05 C 98.47 124.06 98.58 124.06 98.69 124.07 L 98.69 124.1 C 99.08 124.99 99.55 125.83 100.08 126.64 L 99.95 126.64 Z M 97.76 126.59 C 97.14 125.7 96.58 124.77 96.09 123.79 C 96.12 123.8 96.16 123.8 96.19 123.81 C 96.19 123.85 96.2 123.9 96.24 123.94 C 96.9 124.86 97.64 125.72 98.33 126.62 L 97.76 126.59 L 97.76 126.59 Z M 96.79 126.47 C 96.26 125.55 95.76 124.61 95.29 123.65 C 95.33 123.66 95.37 123.67 95.4 123.67 L 95.4 123.69 C 95.87 124.67 96.43 125.59 97.03 126.49 C 96.95 126.49 96.87 126.49 96.79 126.47 L 96.79 126.47 Z M 95.08 125.92 C 94.49 125.02 93.9 124.11 93.3 123.21 C 93.4 123.24 93.5 123.26 93.6 123.29 C 94.13 124.19 94.66 125.08 95.19 125.98 C 95.155 125.958 95.118 125.938 95.08 125.92 Z M 93.34 124.66 C 92.96 124.13 92.64 123.56 92.37 122.96 C 92.42 122.97 92.47 122.99 92.51 123 C 92.52 123.02 92.51 123.03 92.52 123.05 L 93.9 125.15 C 93.71 124.99 93.52 124.83 93.34 124.66 Z M 96.02 126.27 C 95.47 125.34 94.92 124.4 94.37 123.47 C 94.44 123.49 94.52 123.5 94.59 123.52 C 95.04 124.46 95.53 125.37 96.04 126.28 C 96.03 126.28 96.02 126.27 96.02 126.27 Z M 98.99 126.64 C 99 126.63 99 126.62 99.01 126.61 C 98.84 126.43 98.7 126.19 98.55 126 C 98.01 125.3 97.45 124.62 96.92 123.92 C 97.17 123.95 97.43 123.97 97.68 124 C 97.69 124.01 97.68 124.02 97.68 124.03 C 98.22 124.9 98.76 125.78 99.29 126.65 C 99.19 126.64 99.09 126.64 98.99 126.64 L 98.99 126.64 Z M 101.1 124.12 C 101.11 124.12 101.11 124.12 101.1 124.12 C 101.11 124.12 101.11 124.12 101.1 124.12 Z M 91.29 122.61 C 91.44 122.66 91.6 122.71 91.75 122.76 C 91.74 122.81 91.72 122.85 91.74 122.91 C 91.78 123.01 91.83 123.1 91.87 123.2 L 91.78 123.11 C 91.62 122.94 91.45 122.78 91.29 122.61 L 91.29 122.61 Z" fill="#000000" stroke-width="none" opacity="1"/>
            </g>
          </g>
          <g id="svga-group-eyes-left-move" transform="matrix(1,0,0,1,3,0)">
            <g id="svga-group-eyes-left">
              <g id="svga-group-eyesback-left"/>
              <g id="svga-group-eyesiriswrapper-left">
                <g id="svga-group-eyesiriscontrol-left" transform="matrix(1,0,0,1,0,0)">
                  <g id="svga-group-eyesiris-left">
                    <path id="SvgjsPath14927" d="M79.2 82.9c2.4 0 4.3 1.9 4.3 4.2s-1.9 4.2-4.3 4.2-4.3-1.9-4.3-4.2 1.9-4.2 4.3-4.2z" fill="#000000" stroke-width="none" opacity="1"/>
                    <path id="SvgjsPath14928" d="M75.5 84.9c-.4 1-.5 2.2-.2 3.1.3 1 .9 1.9 1.8 2.3s1.9.6 2.8.3c.9-.2 1.8-.8 2.2-1.6.5-.8.7-1.8.5-2.8-.1-.5-.3-.9-.6-1.3s-.7-.7-1.1-1-.9-.4-1.4-.6c-.5-.1-1-.1-1.5-.1-.1 0-.3 0-.4.1s-.3.1-.4.1c-.2.1-.5.2-.7.3-.3.4-.7.8-1 1.2.2-.5.6-.9 1-1.3.2-.2.5-.3.7-.5.1-.1.3-.1.4-.2.1-.1.3-.1.4-.1.6-.1 1.2-.2 1.8-.1.6.1 1.1.2 1.7.5s1.1.6 1.4 1.1c.4.5.7 1.1.8 1.7.3 1.2.1 2.5-.6 3.6-.3.5-.8 1-1.3 1.4-.5.3-1.1.6-1.7.7-1.2.2-2.5.1-3.5-.6-.5-.3-.9-.8-1.3-1.3-.3-.5-.5-1.1-.6-1.7-.1-1.1.1-2.3.8-3.2z" fill="#ffffff" stroke-width="none" opacity="1"/>
                    <path id="SvgjsPath14929" d="M79.2 92c-.9 0-1.8-.3-2.6-.8-.5-.3-1-.8-1.3-1.3-.3-.5-.5-1.1-.6-1.7-.2-1.2.1-2.4.7-3.4l.6-.9.2-.2v.1c.1-.1.2-.2.3-.2.2-.2.5-.4.8-.5.1-.1.3-.1.4-.2.1-.1.3-.1.4-.1.6-.2 1.2-.2 1.8-.1.6.1 1.2.3 1.7.5.6.3 1.1.7 1.5 1.2.4.5.7 1.1.8 1.7.3 1.2.1 2.6-.6 3.7-.3.6-.8 1.1-1.3 1.4s-1.1.6-1.8.8c-.3-.1-.7 0-1 0zM75 86.5c-.1.5-.1 1.1 0 1.6.1.6.3 1.1.6 1.6s.7.9 1.2 1.2c1 .6 2.2.8 3.4.6.6-.1 1.2-.4 1.6-.7s.9-.8 1.2-1.3c.6-1 .8-2.3.5-3.5-.1-.6-.4-1.2-.8-1.6-.4-.4-.8-.8-1.4-1.1-.5-.2-1-.4-1.6-.5-.5-.1-1.1 0-1.7.1-.1 0-.3.1-.4.1-.1.1-.3.1-.4.2-.2.1-.3.2-.5.3.2-.1.4-.2.6-.2.1 0 .3-.1.4-.1.1 0 .3-.1.4-.1.6-.1 1.1-.1 1.6.1.6.2 1.1.4 1.5.6.4.3.8.6 1.1 1 .3.4.5.9.6 1.4.2 1 0 2-.5 2.9-.5.9-1.4 1.5-2.4 1.7-1 .2-2.1.1-3-.4S75.4 89 75.1 88c-.1-.4-.1-.9-.1-1.5zm.6-1.5c-.4 1-.4 2-.1 3 .3 1 .9 1.8 1.7 2.2.8.4 1.8.6 2.7.3.9-.2 1.7-.8 2.2-1.6.5-.8.7-1.8.5-2.7-.1-.5-.3-.9-.5-1.2-.3-.4-.6-.7-1-.9-.4-.2-.8-.4-1.4-.6-.4-.1-.9-.1-1.5-.1-.1 0-.2 0-.4.1-.1 0-.2.1-.4.1-.2.1-.4.2-.7.3-.4.3-.7.7-1.1 1.1z" fill="#000000" stroke-width="none" opacity="1"/>
                    <path id="SvgjsPath14930" d="M79.3 84.8c-1.3-.3-2.9 1.3-2.6 2.6.1.3.4.6.7.6.4 0 .6-.1.8-.4.1-.1.1-.2.2-.3 0 0 .1-.1.1-.2V87l.1-.1.1-.1s.2-.1.1-.1c.2-.1.4-.1.6-.2.8-.3.7-1.5-.1-1.7z" fill="#ffffff" stroke-width="none" opacity="1"/>
                  </g>
                </g>
              </g>
              <g id="svga-group-eyesfront-left">
                <path id="SvgjsPath16526" d="M79 72.1c-8.2 0-14.8 6.6-14.8 14.8s6.6 14.8 14.8 14.8 14.8-6.6 14.8-14.8c0-8.1-6.6-14.8-14.8-14.8zm3.1 20.1c-5.3.7-12.6-1-14.2-1.7s-2.8-2.6 1.3-4.1 7.8-1.6 13.7-.4 7.9 3.7 7.9 3.7c-.3.4-3.4 1.9-8.7 2.5z" fill="#ffffff" stroke-width="none" opacity="1"/>
                <path id="SvgjsPath16527" d="M66.3 90.1c-.4-.5-.4-1.2 0-1.9 1.3-2.2 7.1-4.6 14.1-3.3 6 1.1 9.1 3 10.5 4.2.1-.1.1-.3.1-.4.1-.9-.8-2.1-2.3-3.1-3.5-2.4-9.7-3.8-14.9-1.2-.2.1-.5 0-.6-.2s0-.5.2-.6c5.5-2.8 12.1-1.3 15.8 1.3 1.9 1.3 2.9 2.7 2.7 4 0 .3-.1.6-.3.9l.2.2c.2.2.1.5-.1.6-.2.2-.5.1-.6-.1l-.1-.1c-.2.2-.5.3-.8.5-3.3 1.4-7.3 1.9-11.1 1.9-6.2 0-11.8-1.4-12.8-2.7zm14-4.3c-6.9-1.2-12.2 1.2-13.2 2.9-.3.5-.1.7-.1.8 1.3 1.7 14.2 4.1 22.7.5.2-.1.4-.2.5-.3-1.2-1-4.1-2.9-9.9-3.9z" fill="#000000" stroke-width="none" opacity="1"/>
              </g>
            </g>
          </g>
          <g id="svga-group-eyes-right-move" transform="matrix(1,0,0,1,-3,0)">
            <g id="svga-group-eyes-right">
              <g id="svga-group-eyesback-right"/>
              <g id="svga-group-eyesiriswrapper-right">
                <g id="svga-group-eyesiriscontrol-right" transform="matrix(1,0,0,1,0,0)">
                  <g id="svga-group-eyesiris-right">
                    <path id="SvgjsPath14931" d="M121.3 82.9c2.4 0 4.3 1.9 4.3 4.2s-1.9 4.2-4.3 4.2-4.3-1.9-4.3-4.2 2-4.2 4.3-4.2z" fill="#000000" stroke-width="none" opacity="1"/>
                    <path id="SvgjsPath14932" d="M117.6 84.9c-.4 1-.5 2.2-.2 3.1.3 1 .9 1.9 1.8 2.3s1.9.6 2.8.3c.9-.2 1.8-.8 2.2-1.6.5-.8.7-1.8.5-2.8-.1-.5-.3-.9-.6-1.3s-.7-.7-1.1-1-.9-.4-1.4-.6c-.5-.1-1-.1-1.5-.1-.1 0-.3 0-.4.1s-.3.1-.4.1c-.2.1-.5.2-.7.3-.3.4-.7.8-1 1.2.2-.5.6-.9 1-1.3.2-.2.5-.3.7-.5.1-.1.3-.1.4-.2.1-.1.3-.1.4-.1.6-.1 1.2-.2 1.8-.1.6.1 1.1.2 1.7.5s1.1.6 1.4 1.1c.4.5.7 1.1.8 1.7.3 1.2.1 2.5-.6 3.6-.3.5-.8 1-1.3 1.4-.5.3-1.1.6-1.7.7-1.2.2-2.5.1-3.5-.6-.5-.3-.9-.8-1.3-1.3-.3-.5-.5-1.1-.6-1.7 0-1.1.2-2.3.8-3.2z" fill="#ffffff" stroke-width="none" opacity="1"/>
                    <path id="SvgjsPath14933" d="M121.3 92c-.9 0-1.8-.3-2.6-.8-.5-.3-1-.8-1.3-1.3-.3-.5-.5-1.1-.6-1.7-.2-1.2.1-2.4.7-3.4l.6-.9.2-.2v.1c.1-.1.2-.2.3-.2.2-.2.5-.4.8-.5.1-.1.3-.1.4-.2.1-.1.3-.1.4-.1.6-.2 1.2-.2 1.8-.1.6.1 1.2.3 1.7.5.6.3 1.1.7 1.5 1.2.4.5.7 1.1.8 1.7.3 1.2.1 2.6-.6 3.7-.3.6-.8 1.1-1.3 1.4s-1.1.6-1.8.8c-.3-.1-.6 0-1 0zm-4.2-5.5c-.1.5-.1 1.1 0 1.6.1.6.3 1.1.6 1.6s.7.9 1.2 1.2c1 .6 2.2.8 3.4.6.6-.1 1.2-.4 1.6-.7s.9-.8 1.2-1.3c.6-1 .8-2.3.5-3.5-.1-.6-.4-1.2-.8-1.6-.4-.4-.8-.8-1.4-1.1-.5-.2-1-.4-1.6-.5-.5-.1-1.1 0-1.7.1-.1 0-.3.1-.4.1-.1.1-.3.1-.4.2-.2.1-.3.2-.5.3.2-.1.4-.2.6-.2.1 0 .3-.1.4-.1.1 0 .3-.1.4-.1.6-.1 1.1-.1 1.6.1.6.2 1.1.4 1.5.6.4.3.8.6 1.1 1 .3.4.5.9.6 1.4.2 1 0 2-.5 2.9-.5.8-1.3 1.5-2.3 1.7-1 .2-2.1.1-3-.4s-1.6-1.4-1.9-2.4c-.1-.4-.2-.9-.2-1.5zm.6-1.5c-.4 1-.4 2-.1 3 .3 1 .9 1.8 1.7 2.2.8.4 1.8.6 2.7.3.9-.2 1.7-.8 2.2-1.6.5-.8.7-1.8.5-2.7-.1-.5-.3-.9-.5-1.2-.3-.4-.6-.7-1-.9-.4-.2-.8-.4-1.4-.6-.4-.1-.9-.1-1.5-.1-.1 0-.2 0-.4.1-.1 0-.2.1-.4.1-.2.1-.4.2-.7.3l-1.1 1.1z" fill="#000000" stroke-width="none" opacity="1"/>
                    <path id="SvgjsPath14934" d="M121.4 84.8c-1.3-.3-2.9 1.3-2.6 2.6.1.3.4.6.7.6.4 0 .6-.1.8-.4.1-.1.1-.2.2-.3 0 0 .1-.1.1-.2V87l.1-.1.1-.1s.2-.1.1-.1c.2-.1.4-.1.6-.2.8-.3.7-1.5-.1-1.7z" fill="#ffffff" stroke-width="none" opacity="1"/>
                  </g>
                </g>
              </g>
              <g id="svga-group-eyesfront-right">
                <path id="SvgjsPath16528" d="M121 72.1c-8.2 0-14.8 6.6-14.8 14.8s6.6 14.8 14.8 14.8 14.8-6.6 14.8-14.8c0-8.1-6.6-14.8-14.8-14.8zm11 18.5c-1.6.6-8.9 2.4-14.2 1.7-5.3-.7-8.4-2.2-8.7-2.5 0 0 2-2.4 7.9-3.7 5.9-1.3 9.6-1.2 13.7.4s3 3.4 1.3 4.1z" fill="#ffffff" stroke-width="none" opacity="1"/>
                <path id="SvgjsPath16531" d="M133.6 88.2c-1.3-2.2-7.1-4.6-14.1-3.3-1.5.3-2.8.6-4 1-.1-.7-.3-1.4-.2-2.1.6-.2 1.2-.3 1.8-.4-.2.6-.2 1.2.1 1.8.1.2.4.1.4-.1-.1-.6-.2-1.1 0-1.7 2.8-.4 5.8-.2 8.6 1.2.2.1.5 0 .6-.2s0-.5-.2-.6c-5.5-2.8-12.1-1.3-15.8 1.3-1.9 1.3-2.9 2.7-2.7 4 0 .3.1.6.3.9l-.2.2c-.2.2-.1.5.1.6.2.2.5.1.6-.1l.1-.1c.2.2.5.3.8.5 3.3 1.4 7.3 1.9 11.1 1.9 6.2 0 11.8-1.4 12.8-2.7.4-.8.4-1.4-.1-2.1zm-18.7-4.4c-.1.7-.1 1.5.2 2.1-.5.2-1 .3-1.4.5 0-.7-.1-1.4-.1-2.1.5-.2.9-.3 1.3-.5zm-3.2 1.6c.5-.3 1-.6 1.5-.8-.1.7-.1 1.4.2 2-.7.3-1.3.5-1.8.8 0-.3-.1-.7-.1-1 0-.4.1-.7.2-1zm-1.5 1.1c.2-.2.5-.5.8-.7-.1.6-.1 1.3.4 1.7-.3.2-.6.4-.9.5-.1-.2-.2-.4-.2-.7-.1-.2-.1-.5-.1-.8zm-.9 1.4c0-.2 0-.3.1-.5l.3-.3c0 .5.1.9.3 1.3-.2.2-.5.3-.6.5 0-.4-.1-.7-.1-1zm23.6 1.6c-1.3 1.7-14.2 4.1-22.7.5-.2-.1-.4-.2-.5-.3 1.3-1 4.2-2.9 10-3.9 6.9-1.2 12.2 1.2 13.2 2.9.3.5.1.7 0 .8zm-13.1-6.3v.8c0 .1.2.1.2 0v-.8c0-.1-.2-.1-.2 0z" fill="#000000" stroke-width="none" opacity="1"/>
              </g>
            </g>
          </g>
          <g id="svga-group-facehighlight-single"/>
          <g id="svga-group-eyebrows-left-move" transform="matrix(1,0,0,1,0,0)">
            <g id="svga-group-eyebrows-left-rotate" transform="matrix(1,1.745329211202154e-9,-1.745329211202154e-9,1,1.298418652595501e-7,-1.3435459322863608e-7)">
              <g id="svga-group-eyebrows-left">
                <path id="SvgjsPath16624" d="M63.38 74.47c.22-.18 5.53-4.4 8.18-4.68 2.64-.28 18.4 3.81 19.44 5.45.47.75.57 1.33.28 1.75-.23.33-.68.5-1.35.5-.44 0-.98-.07-1.61-.21-1.05-.23-3.78-1.19-6.94-2.29-4.07-1.43-8.69-3.04-9.81-3.12-1.58-.1-6.16 2.28-7.79 3.21-.16.09-.37.04-.48-.11a.408.408 0 0 1 .08-.5z" fill="#000000" stroke-width="none" opacity="1"/>
              </g>
            </g>
          </g>
          <g id="svga-group-eyebrows-right-move" transform="matrix(1,0,0,1,0,0)">
            <g id="svga-group-eyebrows-right-rotate" transform="matrix(1,1.745329211202154e-9,-1.745329211202154e-9,1,1.298418652595501e-7,-2.1471123545779847e-7)">
              <g id="svga-group-eyebrows-right">
                <path id="SvgjsPath16625" d="M136.62 74.47c-.22-.18-5.53-4.4-8.18-4.68-2.64-.28-18.4 3.81-19.44 5.45-.47.75-.57 1.33-.28 1.75.23.33.68.5 1.35.5.44 0 .98-.07 1.61-.21 1.05-.23 3.78-1.19 6.94-2.29 4.07-1.43 8.69-3.04 9.81-3.12 1.58-.1 6.16 2.28 7.79 3.21.16.09.37.04.48-.11.09-.17.06-.38-.08-.5z" fill="#000000" stroke-width="none" opacity="1"/>
              </g>
            </g>
          </g>
          <g id="svga-group-beardwrap" transform="matrix(1.0400004000000003,0,0,1.0002004000000002,0,0)">
            <g id="svga-group-beard-single-move" transform="matrix(1,0,0,1,0,0)">
              <g id="svga-group-beard-single"/>
            </g>
          </g>
          <g id="svga-group-mustache-single-move" transform="matrix(1,0,0,1,0,0)">
            <g id="svga-group-mustache-single" transform="matrix(0.7999992000000002,0,0,0.7999992000000002,19.884156226980565,23.188838635110443)">
              <path id="SvgjsPath15675" d="M98.1 114.1c-.2.3-.4.5-.7.8-.1.1 0 .4.2.3.3-.2.6-.5.8-.9-.1-.2-.2-.3-.3-.2zm-1.7.6c-.3.2-.6.5-.9.7-.2.1.1.4.2.3.3-.2.7-.4.9-.8.1-.1-.1-.3-.2-.2zm-1.2.1c-.3.2-.6.5-.9.7-.2.1-.1.3.1.3.4-.2.8-.3 1-.7.1-.3-.1-.4-.2-.3zm-1.6-.2c-.4.1-.7.4-1 .5-.2.1-.1.3.1.2.4-.1.8-.2 1.1-.6 0 0-.1-.2-.2-.1zm-1.6-.3c-.3.1-.6.3-.9.6-.1.1 0 .3.1.2.3-.2.7-.3.9-.5.1-.1 0-.3-.1-.3zm-1.8 0c-.2.1-.5.3-.7.4-.1.1 0 .3.1.2.3-.1.6-.2.8-.4.1-.1-.1-.2-.2-.2zm-1-.2c-.3.1-.7.4-.9.6-.1.1 0 .3.2.2.3-.2.7-.3.9-.6 0 0-.1-.3-.2-.2zm-1.6 0-.6.3c-.1.1-.1.3 0 .3.3 0 .6-.1.8-.4 0-.1-.1-.2-.2-.2zm-1.2-.2c-.3.1-.7.2-1 .4-.2.1-.2.3.1.3.4 0 .8-.1 1.1-.5.1 0 0-.2-.2-.2zm-1.6-.3c-.2.1-.5.2-.8.3-.2 0-.2.4.1.3.4 0 .7-.2.9-.5.1 0-.1-.2-.2-.1zm-1.4.1c-.3.1-.6.3-1 .3-.2 0-.1.3 0 .3.4 0 .8-.1 1.1-.5.1-.1 0-.2-.1-.1zm-1-.3c-.3.1-.7.3-1 .3-.2 0-.2.4.1.4.4 0 .8-.1 1.1-.4 0-.1-.1-.3-.2-.3zm-1.8.3c-.2 0-.5.1-.7.2-.2 0-.1.3 0 .3.3 0 .6-.1.8-.2.1-.1 0-.3-.1-.3zm-.4-.3c-.5.1-1 .2-1.5.4-.2.1-.1.3.1.3.5-.1 1-.2 1.5-.4 0-.1 0-.3-.1-.3zm5.3.4c.3 0 .5-.1.8-.2.2-.1.1-.3-.1-.3-.2.1-.5.2-.7.2-.3 0-.2.4 0 .3zm2.5-.6c-.2.1-.4.2-.7.4-.2.1 0 .4.2.3.2-.1.4-.2.6-.4.1-.2 0-.4-.1-.3zm.3.8c.2-.1.4-.2.7-.3.1 0 0-.2 0-.2-.3 0-.5.1-.7.2-.2.2-.1.4 0 .3zm2.1-.5c-.2.1-.3.1-.5.2s0 .4.2.3c.2-.1.3-.2.5-.3 0-.1-.1-.3-.2-.2zm1.3.4c0-.1 0-.2-.1-.2-.3.1-.5.2-.8.4-.2.1-.1.4.1.3.4-.1.7-.2.8-.5zm1.2.6c.3-.1.6-.3.8-.5.1-.1 0-.2-.1-.2-.3.1-.6.2-.9.4-.2.1 0 .4.2.3zm2-.2c.1-.1 0-.3-.2-.3-.3.1-.5.2-.7.3-.2.1 0 .4.2.3.3 0 .5-.1.7-.3zm1.6-.5-.9.6c-.2.1.1.4.2.3.3-.2.6-.4.8-.7.1-.1 0-.3-.1-.2zm.7.6c.2-.1.4-.3.6-.5.2-.2-.1-.4-.3-.3-.2.2-.4.3-.5.6 0 .1.1.2.2.2zm-.2.9c-.1.1-.1.2-.1.3s.2.3.3.2c.1-.1.1-.2.2-.3 0-.2-.3-.4-.4-.2zm2.9-.7c-.1.4 0 .7.2.9.1.1.2 0 .2-.1 0-.3-.1-.5-.1-.8 0-.2-.3-.2-.3 0zm1-.3c.1.3.2.7.4 1 .1.1.3.1.3-.1 0-.3-.2-.7-.3-1 0-.3-.5-.2-.4.1zm.1.8c-.1-.1-.3 0-.2.1.1.3.3.5.6.6.1 0 .2-.2.1-.2-.3-.2-.5-.3-.5-.5zm1.3-.9c-.1-.2-.4 0-.3.2.2.4.6.8 1.1.8.2 0 .2-.2.1-.3-.4-.2-.7-.3-.9-.7zm1.5-.9c-.2-.2-.5.1-.3.3.3.3.7.6 1.1.7.2 0 .2-.2.1-.3-.3-.3-.6-.4-.9-.7zm-.5 1.1c-.2-.1-.4.2-.2.3.4.3.8.6 1.3.5.1 0 .1-.2 0-.3-.3-.2-.8-.3-1.1-.5zm3.2.1c-.4-.1-.8-.2-1.2-.4-.2-.1-.4.2-.2.3.4.3.8.5 1.3.4.3 0 .3-.3.1-.3zm.5-.9c-.2-.1-.3.2-.2.3.4.3.8.5 1.3.5.1 0 .2-.2.1-.3-.4-.1-.9-.3-1.2-.5zm1.8-.4c-.2-.2-.4.1-.3.3.3.4.7.7 1.2.6.1 0 .2-.2 0-.3-.3-.2-.6-.3-.9-.6zm2.2.2c-.2-.3-.5-.4-.9-.4-.2-.1-.3.3-.1.4l.9.3c.1-.1.2-.2.1-.3zm.7-1c-.2-.1-.4.1-.2.2.2.2.5.4.8.4.2 0 .2-.2.1-.3-.3 0-.5-.1-.7-.3zm1.9.3c.1 0 .1-.2 0-.3-.2-.1-.5-.2-.7-.3-.2-.2-.4.1-.2.2.2.3.5.4.9.4zm1.8-.8c-.4 0-.7-.1-1-.3-.2-.1-.4.2-.2.3.4.3.8.4 1.2.3.2-.1.1-.3 0-.3zm-8.2 2.5c-.1-.2-.4 0-.3.2.2.3.5.6.9.6.2 0 .2-.2.1-.3-.3-.2-.6-.3-.7-.5zm1.5-.3c-.1-.1-.3.1-.2.2.2.2.5.4.8.5.1 0 .2-.1.1-.2-.3-.1-.5-.3-.7-.5zm2.6-.1c-.3-.1-.6-.1-.9-.2-.3 0-.2.4 0 .4.3 0 .6.1.9.1.1 0 .1-.2 0-.3zm1-.5c-.3 0-.5 0-.8-.2-.2-.1-.4.2-.2.3.3.2.7.2 1 .1.2 0 .1-.2 0-.2zm1.8-1.1c-.2 0-.2.3 0 .3s.4 0 .7-.1c.1 0 .1-.2 0-.2h-.7zm2.1-1.1c-.2-.2-.4.1-.3.3.3.3.6.5 1.1.3.1 0 .1-.2 0-.2-.3-.1-.6-.1-.8-.4zm1.9-.5c-.3-.1-.4.3-.1.4.3.1.5.1.8.2.2 0 .3-.3.1-.3-.3-.2-.5-.2-.8-.3zm1.6-.4c-.3-.1-.4.3-.1.4.2 0 .4.1.6 0 .1 0 .1-.2 0-.2-.2-.1-.3-.1-.5-.2zm-2.8.8c-.2-.1-.3.3-.1.3h.3c.1 0 .2-.1.1-.2-.1 0-.1 0-.3-.1zm4.6-.9c-.2 0-.4 0-.7.1-.2 0-.1.3.1.2.2 0 .4-.1.6-.1.1-.1.1-.2 0-.2zm-42.2 2.5c-.4.1-.8.2-1.2.1-.2-.1-.3.3-.1.4.5.2 1 .1 1.4-.2.2-.1 0-.3-.1-.3zm25.7 2c-.2 0-.2.4 0 .4h.6c.2 0 .2-.2.1-.3-.2-.1-.4-.1-.7-.1zm-9.2-.8c.2-.1.3-.2.5-.3.1-.1.1-.3-.1-.2-.2.1-.3.2-.5.2-.3.1-.1.4.1.3zm18-1c-.3-.1-.5-.1-.8-.2-.2-.1-.3.2-.1.3.3.2.6.3.9.2.2.1.2-.2 0-.3zm4.6-1.4c-.2 0-.4 0-.6-.2-.2-.1-.3.2-.2.3.2.2.5.2.7.1.3 0 .2-.2.1-.2zm-3 .8c-.2 0-.3.3-.1.3.3.1.5.2.8.2.1 0 .2-.2.1-.3-.2-.1-.5-.1-.8-.2z" fill="#000000" stroke-width="none" opacity="1"/>
            </g>
          </g>
          <g id="svga-group-nose-single-move" transform="matrix(1,0,0,1,0,0)">
            <g id="svga-group-nose-single" transform="matrix(1.2500010000000008,0,0,1.2500010000000008,-24.965815271186912,-25.272308348960962)">
              <path id="SvgjsPath15903" d="M103.29 107.27c-1.43 1.14-6.6.84-8.09-1.16-1.49-2.01-1.23-5.37-.71-8.74.52-3.36 3.24-17.34 3.75-18.38.52-1.04 1.75-1.16 2.39 0s3.43 16.63 3.75 20.45.86 6.28-1.09 7.83z" fill="#ffffff" stroke-width="none" opacity="1"/>
              <path id="SvgjsPath15904" d="M95.15 107.24c2.35 1.15 5.1 2.37 7.68 1.14 2.66-1.27 2.67-4.06 2.36-6.63-.96-7.77-2.31-15.48-3.95-23.13-.2-.94-1.65-.54-1.44.4 1.2 5.6 2.24 11.23 3.09 16.89.41 2.72 1.34 5.93.94 8.68-.62 4.25-5.38 2.6-7.91 1.36-.88-.42-1.64.87-.77 1.29z" fill="#000000" stroke-width="none" opacity="1"/>
            </g>
          </g>
          <g id="svga-group-hair-front" transform="matrix(1.0400004000000003,0,0,1.0002004000000002,-3.975832757197594,-0.006180846120077632)">
            <path id="SvgjsPath15293" d="M61.8 42.3s5-2.4 11.2-2.4 34.7 2.1 42.1 1.8 14.4-2.6 16.8-1.5 6.5 3.5 6.5 3.5 2.1-21.8-.9-22.6-23.5-3.5-23.5-3.5l-1.8 3.2-2.4-3.2s-9.7-.9-10.6 0-12.4 1.5-14.7 1.2c-2.4-.3-7.6 0-7.6 0l-.9 2.6-3-2.3-2.4 2.6-3.2-1.2-7.6.6s0 16.5 2 21.2z" fill="#ffffff" stroke-width="none" opacity="1"/>
            <path id="SvgjsPath15294" d="M137.7 20.2c-3-.9-22.8-3.5-23.7-3.6l-.7-.1L112 19l-1.7-2.3h-.5c-9.5-.9-10.9-.1-11.3.2-1.4.6-11.5 1.3-13.9 1s-7.6 0-7.8 0h-.7l-.6 1.9-2.6-2-2.5 2.8-2.8-1-8.8.7v.9c0 .7 0 16.7 2.1 21.6l.4.9.9-.4S67.1 41 72.9 41c2.5 0 8.7.3 15.9.7 10.2.6 21.9 1.2 26.2 1 3.2-.1 6.4-.6 9.2-1.1 3.1-.5 6.1-1 7.1-.5 2.3 1.1 6.4 3.5 6.4 3.5l1.3.8.1-1.5c1.1-10.3 1.7-22.8-1.4-23.7zM68.4 39.4c-1.4-5.2-2.1-10.5-2.2-15.9 0-.8-1.3-.8-1.3 0 .1 5.5.8 10.8 2.2 16.1-2.1.4-3.8 1-4.8 1.4-1.4-4.6-1.6-15.6-1.6-18.9l6.5-.5 3.7 1.3 2.2-2.4 3.3 2.7 1.1-3.4c1 0 3-.1 4.7-.1-.8 6.6-.7 13.1.3 19.7-4.3-.3-7.8-.4-9.5-.4-1.6 0-3.2.1-4.6.4zm18.6.2c-.5-6.2-.6-12.4-.4-18.7 0-.8-1.2-.8-1.3 0-.3 6.2-.1 12.4.3 18.6-.7 0-1.4-.1-2-.1-1.1-6.6-1.2-13.1-.3-19.7.3 0 .6 0 .9.1 1.7.2 13.6-.1 15.4-1.4.9-.3 5.4-.2 9.4.2l3 4.1 2.2-4c.1 0 .3 0 .4.1v.1c-.4 7.4-1.2 14.7-2.5 21.9-4.9-.1-13-.5-20.7-.9-.3-5.5-.3-11 .2-16.5.1-.8-1.2-.8-1.3 0-.3 5.4-.3 10.9 0 16.4-.4 0-.9 0-1.3-.1-.7 0-1.3-.1-2-.1zm42.9-.7c-1.6 0-3.6.3-6 .7-2.7.4-5.8.9-8.9 1.1h-1.5c1.3-7.2 2.1-14.5 2.5-21.8 1.9.2 4.1.5 6.3.8-.1.1-.1.2-.1.3-.5 5.3-.9 10.6-1.4 15.9-.1.8 1.2.8 1.3 0 .5-5.3.9-10.6 1.4-15.9v-.2c5.3.7 10.5 1.5 12.8 2 .6 6.4.1 12.6-1.5 18.8-.6-.3-1.1-.6-1.7-.9 1.6-5.5 2.6-11.1 3.2-16.8.1-.8-1.2-.8-1.3 0-.5 5.5-1.6 10.9-3.1 16.2-.6-.1-1.2-.2-2-.2zm7.5 3.3c-.5-.3-1-.6-1.6-.9 1.6-5.9 2.1-11.8 1.7-17.9.7 3.2.6 11.2-.1 18.8zm-64-17c0-.8-1.2-.8-1.3 0-.1 4.3.1 8.5.7 12.8.1.8 1.3.5 1.2-.3-.5-4.1-.7-8.3-.6-12.5zM102 38.6c.8-5.1 1.1-10.2.7-15.4-.1-.8-1.3-.8-1.3 0 .3 5.1.1 10.1-.7 15.1-.1.7 1.1 1.1 1.3.3zm3-1.6c-.1.8 1.1 1.1 1.2.3.8-4.8.8-9.6-.1-14.4-.2-.8-1.4-.5-1.2.3.9 4.7 1 9.2.1 13.8zm21-13.8c-.4 4.7-.9 9.5-1.3 14.2-.1.8 1.2.8 1.3 0 .4-4.7.9-9.5 1.3-14.2 0-.8-1.2-.8-1.3 0z" fill="#000000" stroke-width="none" opacity="1"/>
          </g>
          <g id="svga-group-glasses-single-move" transform="matrix(1,0,0,1,0,0)">
            <g id="svga-group-glasses-single" transform="matrix(1.1500005000000004,0,0,1.1500005000000004,-14.984586119413422,-13.24373311047367)">
              <path id="SvgjsPath15166" d="M81.31 72.09c-4.36-.64-9.29 0-14.37 5.47s-4.65 12.2-2.13 18.11c2.7 6.33 9.56 8.96 14.25 9.06 4.69.1 10.07-2.54 12.8-5.86s4.4-8.8 3.62-13.29c-.78-4.5-4.21-12.03-14.17-13.49z" fill="url(#SvgjsLinearGradient15167)" opacity="1"/>
              <path id="SvgjsPath15170" d="M118.48 72.09c4.36-.64 9.29 0 14.37 5.47s4.65 12.2 2.13 18.11c-2.7 6.33-9.56 8.96-14.25 9.06-4.69.1-10.07-2.54-12.8-5.86s-4.4-8.8-3.62-13.29c.78-4.5 4.2-12.03 14.17-13.49z" fill="url(#SvgjsLinearGradient15171)" opacity="1"/>
              <path id="SvgjsPath15174" d="M140.77 84.65c-.05-.3-.34-.15-2.02-.69-1.05-.34-1.74-1.16-2.12-1.72-.65-1.77-1.68-3.52-3.23-5.19-5.8-6.24-11.35-6.25-15.03-5.71-8.09 1.19-12.49 6.45-14.19 11.68-.45.13-1.13.19-1.96-.15-1.54-.62-2.13-.99-4.11-.26-1.45.54-1.99.66-2.5.4-1.71-5.23-6.11-10.49-14.19-11.68-3.68-.54-9.23-.54-15.03 5.71-1.55 1.67-2.58 3.42-3.23 5.19-.38.57-1.08 1.38-2.12 1.72-1.67.54-1.97.39-2.02.69s-.1 4.43-.05 4.77c.05.34 1.03.2 2.07.93.8.57 1.39 1.3 1.92 2.24.32 1.2.73 2.33 1.17 3.37 2.72 6.38 9.64 9.41 14.92 9.52h.27c4.7 0 10.18-2.55 13.13-6.14 2.13-2.58 3.5-6.19 3.86-9.68.36-1 1.07-2.71 1.95-3.41 1.28-1.03 2.16-1.61 3.63.48.7 1 1.24 2.1 1.6 2.98.37 3.48 1.74 7.06 3.86 9.63 2.95 3.59 8.44 6.14 13.13 6.14h.27c5.28-.11 12.2-3.14 14.92-9.52.44-1.04.85-2.17 1.17-3.37.52-.94 1.12-1.66 1.92-2.24 1.03-.74 2.02-.59 2.07-.93.04-.33-.01-4.46-.06-4.76zM91.28 98.39c-2.7 3.28-7.97 5.7-12.21 5.59-4.81-.1-11.12-2.84-13.57-8.61-2.02-4.74-3.32-11.59 1.99-17.31 4.12-4.43 8.08-5.44 11.2-5.44.91 0 1.75.09 2.51.2 10.76 1.58 13.09 10.25 13.54 12.87.71 4.08-.75 9.41-3.46 12.7zm43-3.01c-2.46 5.77-8.76 8.51-13.57 8.61-4.24.11-9.51-2.32-12.21-5.59-2.71-3.29-4.16-8.63-3.46-12.69.46-2.62 2.78-11.29 13.54-12.87.75-.11 1.59-.2 2.51-.2 3.13 0 7.09 1.01 11.2 5.44 5.31 5.7 4.01 12.56 1.99 17.3z" fill="#000000" stroke-width="none" opacity="1"/>
            </g>
          </g>
        </g>
      </g>
    </g>
    <rect id="svga-credit-rect" width="200" height="15" x="0" y="185" fill="#ecf0f1" opacity="0.5" style="display: none;"/>
    <text id="svga-credit-text" font-family="Avenir Next, Roboto, Helvetica, Arial, sans-serif" font-size="10px" text-anchor="start" font-weight="400" size="10px" anchor="start" weight="400" fill="#333333" x="33.41924285888672" y="182.43642663955688" style="display: none; white-space: pre;"><tspan id="SvgjsTspan14775" dy="13" x="33.41924285888672">Created on AvatarMaker.com</tspan></text>
  </g>
  <defs id="SvgjsDefs14722">
    <linearGradient id="SvgjsLinearGradient15167" x1="79.3288" y1="71.8854" x2="79.3288" y2="104.7359" gradientUnits="userSpaceOnUse" class="svga-on-canvas-glasses-gradient-single-0-null">
      <stop id="SvgjsStop15168" stop-opacity="1" stop-color="#ffffff" offset="0.0708"/>
      <stop id="SvgjsStop15169" stop-opacity="0" stop-color="#ffffff" offset="1"/>
    </linearGradient>
    <linearGradient id="SvgjsLinearGradient15171" x1="34.9103" y1="71.8854" x2="34.9103" y2="104.7359" gradientTransform="matrix(-1 0 0 1 155.3625 0)" gradientUnits="userSpaceOnUse" class="svga-on-canvas-glasses-gradient-single-1-null">
      <stop id="SvgjsStop15172" stop-opacity="1" stop-color="#ffffff" offset="0.0708"/>
      <stop id="SvgjsStop15173" stop-opacity="0" stop-color="#ffffff" offset="1"/>
    </linearGradient>
  </defs>
  <rect x="92.654" y="119.755" width="5.182" height="4.363" style="stroke: rgb(0, 0, 0);"/>
  <ellipse style="fill: rgb(216, 216, 216); stroke: rgb(0, 0, 0);" cx="136.015" cy="105.301" rx="0.545" ry="0.545"/>
  <ellipse style="fill: rgb(216, 216, 216); stroke: rgb(0, 0, 0);" cx="136.515" cy="117.937" rx="0.409" ry="0.545"/>
  <ellipse style="fill: rgb(216, 216, 216); stroke: rgb(0, 0, 0);"/>
  <ellipse style="fill: rgb(216, 216, 216); stroke: rgb(0, 0, 0);" cx="65.974" cy="112.619" rx="0.136" ry="0.409"/>
  <ellipse style="fill: rgb(216, 216, 216); stroke: rgb(0, 0, 0);" cx="60.883" cy="119.528" rx="0.409" ry="0.409"/>
  <ellipse style="fill: rgb(216, 216, 216); stroke: rgb(0, 0, 0);" cx="129.061" cy="112.664" rx="0.409" ry="0.545"/>
  <ellipse style="fill: rgb(216, 216, 216); stroke: rgb(0, 0, 0);" cx="56.02" cy="109.255" rx="0.273" ry="0.409"/>
</svg>